<svg xmlns="http://www.w3.org/2000/svg" xmlns:oryx="http://oryx-editor.org" id="_10F6E426-3E6B-42F8-9C2A-AFB4DAA7D96A" width="527.171875" height="354" xmlns:xlink="http://www.w3.org/1999/xlink" xmlns:svg="http://www.w3.org/2000/svg"><defs><marker id="_6E5B312A-816C-4C26-AADF-414C26321A09start" refX="1" refY="5" markerUnits="userSpaceOnUse" markerWidth="17" markerHeight="11" orient="auto" fill="#000000" stroke="#000000"> 	  		<path id="_6E5B312A-816C-4C26-AADF-414C26321A09conditional" d="M 0 5 L 8 0 L 16 5 L 8 10 L 0 5" fill="white" stroke="#000000" stroke-width="1" display="none"/> 			<path id="_6E5B312A-816C-4C26-AADF-414C26321A09default" d="M 5 0 L 11 10" fill="white" stroke="#000000" stroke-width="1" display="none"/> 	  	</marker><marker id="_6E5B312A-816C-4C26-AADF-414C26321A09end" refX="15" refY="6" markerUnits="userSpaceOnUse" markerWidth="15" markerHeight="12" orient="auto" fill="#000000" stroke="#000000"> 	  		<path id="_6E5B312A-816C-4C26-AADF-414C26321A09frame2" d="M 0 1 L 15 6 L 0 11z" fill="#000000" stroke="#000000" stroke-linejoin="round" stroke-width="2"/> 	  	</marker><marker id="_56984712-23AC-45DD-AD1B-8A8A4F164A2Astart" refX="1" refY="5" markerUnits="userSpaceOnUse" markerWidth="17" markerHeight="11" orient="auto" fill="#000000" stroke="#000000"> 	  		<path id="_56984712-23AC-45DD-AD1B-8A8A4F164A2Aconditional" d="M 0 5 L 8 0 L 16 5 L 8 10 L 0 5" fill="white" stroke="#000000" stroke-width="1" display="none"/> 			<path id="_56984712-23AC-45DD-AD1B-8A8A4F164A2Adefault" d="M 5 0 L 11 10" fill="white" stroke="#000000" stroke-width="1" display="none"/> 	  	</marker><marker id="_56984712-23AC-45DD-AD1B-8A8A4F164A2Aend" refX="15" refY="6" markerUnits="userSpaceOnUse" markerWidth="15" markerHeight="12" orient="auto" fill="#000000" stroke="#000000"> 	  		<path id="_56984712-23AC-45DD-AD1B-8A8A4F164A2Aframe2" d="M 0 1 L 15 6 L 0 11z" fill="#000000" stroke="#000000" stroke-linejoin="round" stroke-width="2"/> 	  	</marker><marker id="_17A9CCC3-0EF9-4947-B545-BF0765DE06A4start" refX="1" refY="5" markerUnits="userSpaceOnUse" markerWidth="17" markerHeight="11" orient="auto" fill="#000000" stroke="#000000"> 	  		<path id="_17A9CCC3-0EF9-4947-B545-BF0765DE06A4conditional" d="M 0 5 L 8 0 L 16 5 L 8 10 L 0 5" fill="white" stroke="#000000" stroke-width="1" display="none"/> 			<path id="_17A9CCC3-0EF9-4947-B545-BF0765DE06A4default" d="M 5 0 L 11 10" fill="white" stroke="#000000" stroke-width="1" display="none"/> 	  	</marker><marker id="_17A9CCC3-0EF9-4947-B545-BF0765DE06A4end" refX="15" refY="6" markerUnits="userSpaceOnUse" markerWidth="15" markerHeight="12" orient="auto" fill="#000000" stroke="#000000"> 	  		<path id="_17A9CCC3-0EF9-4947-B545-BF0765DE06A4frame2" d="M 0 1 L 15 6 L 0 11z" fill="#000000" stroke="#000000" stroke-linejoin="round" stroke-width="2"/> 	  	</marker><marker id="_13BB1197-BC3D-466E-AF81-402E70A96CF5start" refX="1" refY="5" markerUnits="userSpaceOnUse" markerWidth="17" markerHeight="11" orient="auto" fill="#000000" stroke="#000000"> 	  		<path id="_13BB1197-BC3D-466E-AF81-402E70A96CF5conditional" d="M 0 5 L 8 0 L 16 5 L 8 10 L 0 5" fill="white" stroke="#000000" stroke-width="1" display="none"/> 			<path id="_13BB1197-BC3D-466E-AF81-402E70A96CF5default" d="M 5 0 L 11 10" fill="white" stroke="#000000" stroke-width="1" display="none"/> 	  	</marker><marker id="_13BB1197-BC3D-466E-AF81-402E70A96CF5end" refX="15" refY="6" markerUnits="userSpaceOnUse" markerWidth="15" markerHeight="12" orient="auto" fill="#000000" stroke="#000000"> 	  		<path id="_13BB1197-BC3D-466E-AF81-402E70A96CF5frame2" d="M 0 1 L 15 6 L 0 11z" fill="#000000" stroke="#000000" stroke-linejoin="round" stroke-width="2"/> 	  	</marker></defs><g stroke="none" font-family="Verdana, sans-serif" font-size-adjust="none" font-style="normal" font-variant="normal" font-weight="normal" line-heigth="normal" font-size="12"><g class="stencils" transform="translate(15, 16)"><g class="me"/><g class="children"><g id="_D8A3C6C1-1825-4689-8B3C-065C2637D453" bpmn2nodeid="processStartEvent"><g class="stencils" transform="translate(120, 165)"><g class="me"><g pointer-events="fill" id="_D8A3C6C1-1825-4689-8B3C-065C2637D453">        <defs id="_D8A3C6C1-1825-4689-8B3C-065C2637D453__D8A3C6C1-1825-4689-8B3C-065C2637D453_5"> 		<radialGradient id="_D8A3C6C1-1825-4689-8B3C-065C2637D453background" cx="10%" cy="10%" r="100%" fx="10%" fy="10%"> 			<stop offset="0%" stop-color="#ffffff" stop-opacity="1" id="_D8A3C6C1-1825-4689-8B3C-065C2637D453__D8A3C6C1-1825-4689-8B3C-065C2637D453_6"/> 			<stop id="_D8A3C6C1-1825-4689-8B3C-065C2637D453fill_el" offset="100%" stop-color="#9acd32" stop-opacity="1"/> 		</radialGradient> 	</defs> 	     <circle id="_D8A3C6C1-1825-4689-8B3C-065C2637D453bg_frame" cx="15" cy="15" r="15" stroke="#000000" fill="url(#_D8A3C6C1-1825-4689-8B3C-065C2637D453background) white" stroke-width="1" style="stroke-dasharray: 5.5, 3"/>      <circle id="_D8A3C6C1-1825-4689-8B3C-065C2637D453frame" cx="15" cy="15" r="15" stroke="#000000" fill="none" stroke-width="1" display="inherit"/>  	<text font-size="11" id="_D8A3C6C1-1825-4689-8B3C-065C2637D453text_name" x="15" y="32" oryx:align="top center" stroke="black" stroke-width="0pt" letter-spacing="-0.01px" fill="#000000" text-anchor="middle" transform="rotate(0 15 32)" visibility="inherit" oryx:fontSize="11"/>   </g></g><g class="children" style="overflow:hidden"/><g class="edge"/></g><g class="controls"><g class="dockers"/><g class="magnets" transform="translate(120, 165)"><g pointer-events="all" display="none" transform="translate(7, 7)"><circle cx="8" cy="8" r="4" stroke="none" fill="red" fill-opacity="0.3"/></g></g></g></g><g id="_572BD838-944F-483F-A9E2-D7B3DC893FCD" bpmn2nodeid="_87E4A380-29D8-4898-AF68-62E4A05E33D6"><g class="stencils" transform="translate(225, 140)"><g class="me"><g pointer-events="fill" oryx:minimumSize="50 40" id="_572BD838-944F-483F-A9E2-D7B3DC893FCD">   	<defs id="_572BD838-944F-483F-A9E2-D7B3DC893FCD__572BD838-944F-483F-A9E2-D7B3DC893FCD_17"> 		<radialGradient id="_572BD838-944F-483F-A9E2-D7B3DC893FCDbackground" cx="10%" cy="10%" r="100%" fx="10%" fy="10%"> 			<stop offset="0%" stop-color="#ffffff" stop-opacity="1" id="_572BD838-944F-483F-A9E2-D7B3DC893FCD__572BD838-944F-483F-A9E2-D7B3DC893FCD_18"/> 			<stop id="_572BD838-944F-483F-A9E2-D7B3DC893FCDfill_el" offset="100%" stop-color="#fafad2" stop-opacity="1"/> 		</radialGradient> 		<radialGradient id="_572BD838-944F-483F-A9E2-D7B3DC893FCDborderbackground" cx="10%" cy="10%" r="100%" fx="10%" fy="10%"> 			<stop offset="0%" stop-color="#ffffff" stop-opacity="1" id="_572BD838-944F-483F-A9E2-D7B3DC893FCD__572BD838-944F-483F-A9E2-D7B3DC893FCD_19"/> 			<stop id="_572BD838-944F-483F-A9E2-D7B3DC893FCDfill_border" offset="100%" stop-color="#000000" stop-opacity="1" stroke="#000000"/> 		</radialGradient> 	</defs> 	 	<rect id="_572BD838-944F-483F-A9E2-D7B3DC893FCDtext_frame" oryx:anchors="bottom top right left" x="1" y="1" width="94" height="79" rx="10" ry="10" stroke="none" stroke-width="0" fill="none"/> 	<rect id="_572BD838-944F-483F-A9E2-D7B3DC893FCDbg_frame" oryx:resize="vertical horizontal" x="0" y="0" width="100" height="80" rx="10" ry="10" stroke="#000000" stroke-width="1" fill="url(#_572BD838-944F-483F-A9E2-D7B3DC893FCDbackground) #ffffcc"/> 		<text font-size="12" id="_572BD838-944F-483F-A9E2-D7B3DC893FCDtext_name" x="50" y="40" oryx:align="middle center" oryx:fittoelem="text_frame" stroke="black" text-anchor="middle" stroke-width="0pt" letter-spacing="-0.01px" fill="#000000" transform="rotate(0 50 40)" visibility="inherit" oryx:fontSize="12"><tspan x="50" y="40" dy="5" id="ext-gen649">Apto servicio</tspan></text>     <g id="_572BD838-944F-483F-A9E2-D7B3DC893FCDmanualTask" transform="scale(0.7,0.7) translate(8,8)" display="none">     	<path oryx:anchors="top left" id="_572BD838-944F-483F-A9E2-D7B3DC893FCDframe" style="opacity:1;fill:none;fill-opacity:1;stroke-width:1" d="M0.5,3.751l4.083-3.25c0,0,11.166,0.083,12.083,0.083s-2.417,2.917-1.5,2.917     s11.667,0,12.584,0c1.166,1.708-0.168,3.167-0.834,3.667s0.875,1.917-1,4.417c-0.75,0.25,0.75,1.875-1.333,3.333     c-1.167,0.583,0.583,1.542-1.25,2.833c-1.167,0-20.833,0.083-20.833,0.083l-2-1.333V3.751z" stroke="#000000"/> 		<path id="_572BD838-944F-483F-A9E2-D7B3DC893FCDframe2" oryx:anchors="top left" style="opacity:1;fill:none;stroke-width:2" d="M 13.5 7 L 27 7" stroke="#000000"/> 		<path id="_572BD838-944F-483F-A9E2-D7B3DC893FCDframe3" oryx:anchors="top left" style="opacity:1;fill:none;stroke-width:2" d="M 13.5 11 L 26 11" stroke="#000000"/> 		<path id="_572BD838-944F-483F-A9E2-D7B3DC893FCDframe4" oryx:anchors="top left" style="opacity:1;fill:none;stroke-width:1.5" d="M 14 14.5 L 25 14.5" stroke="#000000"/> 		<path id="_572BD838-944F-483F-A9E2-D7B3DC893FCDframe5" oryx:anchors="top left" style="opacity:1;fill:none;stroke-width:1.5" d="M 8.2 3.1 L 15 3.1" stroke="#000000"/> 	</g> 	 	<g id="_572BD838-944F-483F-A9E2-D7B3DC893FCDbusinessRuleTask" transform="scale(0.7,0.7) translate(8,8)" display="inherit"> 		<rect id="_572BD838-944F-483F-A9E2-D7B3DC893FCDframe6" oryx:anchors="top left" x="0" y="0" width="22" height="4" style="opacity:1;fill:#B3B1B3;fill-opacity:1;" stroke="#000000"/> 		<rect id="_572BD838-944F-483F-A9E2-D7B3DC893FCDframe7" oryx:anchors="top left" x="0" y="4" style="opacity:1;fill:none;" width="22" height="12" stroke="#000000"/> 		<path id="_572BD838-944F-483F-A9E2-D7B3DC893FCDframe8" oryx:anchors="top left" style="opacity:1;fill:none;" d="M 0 10 L 22 10" stroke="#000000"/> 		<path id="_572BD838-944F-483F-A9E2-D7B3DC893FCDframe9" oryx:anchors="top left" style="opacity:1; fill:none;" d="M 7 4 L 7 16" stroke="#000000"/> 	</g> 	 	<g id="_572BD838-944F-483F-A9E2-D7B3DC893FCDscriptTask" transform="scale(0.7,0.7) translate(8,8)" display="none"> 		<path oryx:anchors="top left" id="_572BD838-944F-483F-A9E2-D7B3DC893FCDframe10" style="opacity:1;fill:none;" stroke="#000000" d="M6.402,0.5h14.5c0,0-5.833,2.833-5.833,5.583s4.417,6,4.417,9.167    s-4.167,5.083-4.167,5.083H0.235c0,0,5-2.667,5-5s-4.583-6.75-4.583-9.25S6.402,0.5,6.402,0.5z"/> 		<path oryx:anchors="top left" id="_572BD838-944F-483F-A9E2-D7B3DC893FCDframe11" style="opacity:1;fill:none;stroke-width:1.5" d="M 3.5 4.5 L 13.5 4.5" stroke="#000000"/> 		<path oryx:anchors="top left" id="_572BD838-944F-483F-A9E2-D7B3DC893FCDframe12" style="opacity:1;fill:none;stroke-width:1.5" d="M 3.8 8.5 L 13.8 8.5" stroke="#000000"/> 		<path oryx:anchors="top left" id="_572BD838-944F-483F-A9E2-D7B3DC893FCDframe13" style="opacity:1;fill:none;stroke-width:1.5" d="M 6.3 12.5 L 16.3 12.5" stroke="#000000"/> 		<path oryx:anchors="top left" id="_572BD838-944F-483F-A9E2-D7B3DC893FCDframe14" style="opacity:1;fill:none;stroke-width:1.5" d="M 6.5 16.5 L 16.5 16.5" stroke="#000000"/> 	</g> 	 	<g id="_572BD838-944F-483F-A9E2-D7B3DC893FCDuserTask" transform="scale(0.7,0.7) translate(8,8)" display="none"> 		<path id="_572BD838-944F-483F-A9E2-D7B3DC893FCDframe15" oryx:anchors="top left" style="opacity:1;fill:#F4F6F7" stroke="#000000" d="M0.585,24.167h24.083v-7.833c0,0-2.333-3.917-7.083-5.167h-9.25    c-4.417,1.333-7.833,5.75-7.833,5.75L0.585,24.167z"/> 		<path id="_572BD838-944F-483F-A9E2-D7B3DC893FCDframe16" oryx:anchors="top left" style="opacity:1;fill:none" d="M 6 20 L 6 24" stroke="#000000"/> 		<path id="_572BD838-944F-483F-A9E2-D7B3DC893FCDframe17" oryx:anchors="top left" style="opacity:1;fill:none" d="M 20 20 L 20 24" stroke="#000000"/> 		<circle id="_572BD838-944F-483F-A9E2-D7B3DC893FCDframe18" oryx:anchors="top left" fill="black" cx="13.002" cy="5.916" r="5.417" stroke="#000000"/> 		<path id="_572BD838-944F-483F-A9E2-D7B3DC893FCDframe19" oryx:anchors="top left" style="opacity:1;fill:#F0EFF0;" stroke="#000000" d="M8.043,7.083c0,0,2.814-2.426,5.376-1.807s4.624-0.693,4.624-0.693    c0.25,1.688,0.042,3.75-1.458,5.584c0,0,1.083,0.75,1.083,1.5s0.125,1.875-1,3s-5.5,1.25-6.75,0S8.668,12.834,8.668,12    s0.583-1.25,1.25-1.917C8.835,9.5,7.419,7.708,8.043,7.083z"/> 	</g> 	 	<g id="_572BD838-944F-483F-A9E2-D7B3DC893FCDserviceTask" transform="scale(0.7,0.7) translate(8,8)" display="none"> 		<polygon oryx:anchors="top left" id="_572BD838-944F-483F-A9E2-D7B3DC893FCDframe20" style="opacity:1;fill:#ffffff" stroke="#000000" points="15.392,5.064 17.954,2.502 20.347,4.895 17.786,7.455     18.729,9.732 22.353,9.732 22.353,13.115 18.731,13.115 17.788,15.392 20.351,17.955 17.958,20.347 15.397,17.786 13.12,18.729     13.12,22.353 9.737,22.353 9.737,18.731 7.46,17.788 4.897,20.35 2.506,17.958 5.066,15.397 4.124,13.12 0.5,13.12 0.5,9.737     4.121,9.737 5.065,7.461 2.503,4.898 4.895,2.506 7.455,5.066 9.732,4.125 9.732,0.5 13.116,0.5 13.116,4.121 "/> 		<circle oryx:anchors="top left" id="_572BD838-944F-483F-A9E2-D7B3DC893FCDframe21" style="opacity:1;fill:none" stroke="#000000" cx="11.427" cy="11.426" r="3.714"/> 		<polygon oryx:anchors="top left" id="_572BD838-944F-483F-A9E2-D7B3DC893FCDframe22" style="opacity:1;fill:#ffffff" stroke="#000000" points="21.392,11.064 23.954,8.502 26.347,10.895 23.786,13.455     24.729,15.732 28.353,15.732 28.353,19.115 24.731,19.115 23.788,21.392 26.351,23.955 23.958,26.347 21.397,23.786 19.12,24.729     19.12,28.353 15.737,28.353 15.737,24.731 13.46,23.788 10.897,26.35 8.506,23.958 11.066,21.397 10.124,19.12 6.5,19.12     6.5,15.737 10.121,15.737 11.065,13.461 8.503,10.898 10.895,8.506 13.455,11.066 15.732,10.125 15.732,6.5 19.116,6.5     19.116,10.121 "/> 		<circle oryx:anchors="top left" id="_572BD838-944F-483F-A9E2-D7B3DC893FCDframe23" style="opacity:1;fill:none;" stroke="#000000" cx="17.427" cy="17.426" r="3.714"/> 	</g> 	 	<g id="_572BD838-944F-483F-A9E2-D7B3DC893FCDsendTask" display="none"> 		<path id="_572BD838-944F-483F-A9E2-D7B3DC893FCDstframe24" oryx:anchors="left top" stroke="#FFFFFF" fill="black" stroke-width="1" d="M8,11 L8,21 L24,21 L24,11 L16,17z"/> 		<path id="_572BD838-944F-483F-A9E2-D7B3DC893FCDstframe25" oryx:anchors="left top" stroke="#FFFFFF" fill="black" stroke-width="1" d="M7,10 L16,17 L25 10z"/> 	</g> 	 	<g id="_572BD838-944F-483F-A9E2-D7B3DC893FCDreceiveTask" display="none"> 		<path id="_572BD838-944F-483F-A9E2-D7B3DC893FCDframe26" oryx:anchors="left top" stroke="#000000" fill="none" stroke-width="1" d="M8,11 L8,21 L24,21 L24,11z M8,11 L16,17 L24,11"/> 	</g> 	 	<g id="_572BD838-944F-483F-A9E2-D7B3DC893FCDnone" display="inherit"/>  	<g id="_572BD838-944F-483F-A9E2-D7B3DC893FCDsequential" display="none">         <path oryx:anchors="bottom" fill="none" stroke="#000000" stroke-width="2" d="M46,76h10M46,72h10 M46,68h10" id="_572BD838-944F-483F-A9E2-D7B3DC893FCD__572BD838-944F-483F-A9E2-D7B3DC893FCD_20"/>     </g>   </g></g><g class="children" style="overflow:hidden"/><g class="edge"/></g><g class="controls"><g class="dockers"/><g class="magnets" transform="translate(225, 140)"><g pointer-events="all" display="none" transform="translate(-7, 12)"><circle cx="8" cy="8" r="4" stroke="none" fill="red" fill-opacity="0.3"/></g><g pointer-events="all" display="none" transform="translate(-7, 32)"><circle cx="8" cy="8" r="4" stroke="none" fill="red" fill-opacity="0.3"/></g><g pointer-events="all" display="none" transform="translate(-7, 52)"><circle cx="8" cy="8" r="4" stroke="none" fill="red" fill-opacity="0.3"/></g><g pointer-events="all" display="none" transform="translate(17, 71)"><circle cx="8" cy="8" r="4" stroke="none" fill="red" fill-opacity="0.3"/></g><g pointer-events="all" display="none" transform="translate(42, 71)"><circle cx="8" cy="8" r="4" stroke="none" fill="red" fill-opacity="0.3"/></g><g pointer-events="all" display="none" transform="translate(67, 71)"><circle cx="8" cy="8" r="4" stroke="none" fill="red" fill-opacity="0.3"/></g><g pointer-events="all" display="none" transform="translate(91, 12)"><circle cx="8" cy="8" r="4" stroke="none" fill="red" fill-opacity="0.3"/></g><g pointer-events="all" display="none" transform="translate(91, 32)"><circle cx="8" cy="8" r="4" stroke="none" fill="red" fill-opacity="0.3"/></g><g pointer-events="all" display="none" transform="translate(91, 52)"><circle cx="8" cy="8" r="4" stroke="none" fill="red" fill-opacity="0.3"/></g><g pointer-events="all" display="none" transform="translate(17, -7)"><circle cx="8" cy="8" r="4" stroke="none" fill="red" fill-opacity="0.3"/></g><g pointer-events="all" display="none" transform="translate(42, -7)"><circle cx="8" cy="8" r="4" stroke="none" fill="red" fill-opacity="0.3"/></g><g pointer-events="all" display="none" transform="translate(67, -7)"><circle cx="8" cy="8" r="4" stroke="none" fill="red" fill-opacity="0.3"/></g><g pointer-events="all" display="none" transform="translate(42, 32)"><circle cx="8" cy="8" r="4" stroke="none" fill="red" fill-opacity="0.3"/></g></g></g></g><g id="_8F7DE76C-1E33-4A8F-9AFD-9E2ACF5614CD" bpmn2nodeid="_0D7B863D-FAC7-45A1-B9A9-9E495AD72324"><g class="stencils" transform="translate(370, 160)"><g class="me"><g id="_8F7DE76C-1E33-4A8F-9AFD-9E2ACF5614CD">        <defs id="_8F7DE76C-1E33-4A8F-9AFD-9E2ACF5614CD__8F7DE76C-1E33-4A8F-9AFD-9E2ACF5614CD_4"> 		<radialGradient id="_8F7DE76C-1E33-4A8F-9AFD-9E2ACF5614CDbackground" cx="10%" cy="10%" r="100%" fx="10%" fy="10%"> 			<stop offset="0%" stop-color="#ffffff" stop-opacity="1" id="_8F7DE76C-1E33-4A8F-9AFD-9E2ACF5614CD__8F7DE76C-1E33-4A8F-9AFD-9E2ACF5614CD_5"/> 			<stop id="_8F7DE76C-1E33-4A8F-9AFD-9E2ACF5614CDfill_el" offset="100%" stop-color="#f0e68c" stop-opacity="1"/> 		</radialGradient> 		<radialGradient id="_8F7DE76C-1E33-4A8F-9AFD-9E2ACF5614CDborderbackground" cx="10%" cy="10%" r="100%" fx="10%" fy="10%"> 			<stop offset="0%" stop-color="#ffffff" stop-opacity="1" id="_8F7DE76C-1E33-4A8F-9AFD-9E2ACF5614CD__8F7DE76C-1E33-4A8F-9AFD-9E2ACF5614CD_6"/> 			<stop id="_8F7DE76C-1E33-4A8F-9AFD-9E2ACF5614CDfill_border" offset="100%" stop-color="#a67f00" stop-opacity="1" stroke="#a67f00"/> 		</radialGradient> 	</defs> 	     <path d=" M0 20.5  L20.5 0  L40 20.5  L20.5 40  z" id="_8F7DE76C-1E33-4A8F-9AFD-9E2ACF5614CDbg_frame" fill="url(#_8F7DE76C-1E33-4A8F-9AFD-9E2ACF5614CDbackground) white" style="stroke-width:1" stroke="#a67f00"/>     <g id="_8F7DE76C-1E33-4A8F-9AFD-9E2ACF5614CDframe" stroke="#a67f00">       <path id="_8F7DE76C-1E33-4A8F-9AFD-9E2ACF5614CDframe2" d=" M13.25 12.05  L17.25 12.05  L27.65 28.95  L23.75 28.95  z" style="stroke-width:1" stroke="#a67f00" fill="url(#_8F7DE76C-1E33-4A8F-9AFD-9E2ACF5614CDborderbackground)"/>       <path id="_8F7DE76C-1E33-4A8F-9AFD-9E2ACF5614CDframe3" d=" M13.25 28.95  L23.75 12.05  L27.65 12.05  L17.25 28.95  z" style="stroke-width:1" stroke="#a67f00" fill="url(#_8F7DE76C-1E33-4A8F-9AFD-9E2ACF5614CDborderbackground)"/>     </g> 	 	<text id="_8F7DE76C-1E33-4A8F-9AFD-9E2ACF5614CDtext_name" x="30.5" y="30.5" oryx:align="left top" stroke-width="0pt" letter-spacing="-0.01px" fill="#000000" text-anchor="start" transform="rotate(0 30.5 30.5)" visibility="inherit" oryx:fontSize="12"/> 	   </g></g><g class="children" style="overflow:hidden"/><g class="edge"/></g><g class="controls"><g class="dockers"/><g class="magnets" transform="translate(370, 160)"><g pointer-events="all" display="none" transform="translate(12.5, 12.5)"><circle cx="8" cy="8" r="4" stroke="none" fill="red" fill-opacity="0.3"/></g></g></g></g><g id="_ABF81193-06F3-4DE5-AF51-EE5EFAF75A9E" bpmn2nodeid="_EA40E826-31A9-40E5-AD26-8F556EB692DC"><g class="stencils" transform="translate(455, 166)"><g class="me"><g pointer-events="fill" id="_ABF81193-06F3-4DE5-AF51-EE5EFAF75A9E">       <defs id="_ABF81193-06F3-4DE5-AF51-EE5EFAF75A9E__ABF81193-06F3-4DE5-AF51-EE5EFAF75A9E_5"> 		<radialGradient id="_ABF81193-06F3-4DE5-AF51-EE5EFAF75A9Ebackground" cx="10%" cy="10%" r="100%" fx="10%" fy="10%"> 			<stop offset="0%" stop-color="#ffffff" stop-opacity="1" id="_ABF81193-06F3-4DE5-AF51-EE5EFAF75A9E__ABF81193-06F3-4DE5-AF51-EE5EFAF75A9E_6"/> 			<stop id="_ABF81193-06F3-4DE5-AF51-EE5EFAF75A9Efill_el" offset="100%" stop-color="#ff6347" stop-opacity="1"/> 		</radialGradient> 		<radialGradient id="_ABF81193-06F3-4DE5-AF51-EE5EFAF75A9Eborderbackground" cx="10%" cy="10%" r="100%" fx="10%" fy="10%"> 			<stop offset="0%" stop-color="#ffffff" stop-opacity="1" id="_ABF81193-06F3-4DE5-AF51-EE5EFAF75A9E__ABF81193-06F3-4DE5-AF51-EE5EFAF75A9E_7"/> 			<stop id="_ABF81193-06F3-4DE5-AF51-EE5EFAF75A9Efill_border" offset="100%" stop-color="#000000" stop-opacity="1" stroke="#000000"/> 		</radialGradient> 	</defs> 	     <circle id="_ABF81193-06F3-4DE5-AF51-EE5EFAF75A9Ebg_frame" cx="14" cy="14" r="14" stroke="#000000" fill="url(#_ABF81193-06F3-4DE5-AF51-EE5EFAF75A9Ebackground) white" stroke-width="3"/>          <circle id="_ABF81193-06F3-4DE5-AF51-EE5EFAF75A9Eframe" cx="14" cy="14" r="9" stroke="#000000" fill="url(#_ABF81193-06F3-4DE5-AF51-EE5EFAF75A9Eborderbackground)" stroke-width="1"/> 	<text font-size="11" id="_ABF81193-06F3-4DE5-AF51-EE5EFAF75A9Etext_name" x="14" y="30" oryx:align="top center" stroke="black" stroke-width="0pt" letter-spacing="-0.01px" fill="#000000" text-anchor="middle" transform="rotate(0 14 30)" visibility="inherit" oryx:fontSize="11"><tspan x="14" y="30" dy="11" id="ext-gen660">Fin OK</tspan></text>   </g></g><g class="children" style="overflow:hidden"/><g class="edge"/></g><g class="controls"><g class="dockers"/><g class="magnets" transform="translate(455, 166)"><g pointer-events="all" display="none" transform="translate(6, 6)"><circle cx="8" cy="8" r="4" stroke="none" fill="red" fill-opacity="0.3"/></g></g></g></g><g id="_02B8B7B2-B8F9-4DBA-915C-0EB5AA7A655F" bpmn2nodeid="_AF877756-A963-4082-8D94-370CFD0E4D3E"><g class="stencils" transform="translate(376, 270)"><g class="me"><g pointer-events="fill" id="_02B8B7B2-B8F9-4DBA-915C-0EB5AA7A655F">       <defs id="_02B8B7B2-B8F9-4DBA-915C-0EB5AA7A655F__02B8B7B2-B8F9-4DBA-915C-0EB5AA7A655F_5"> 		<radialGradient id="_02B8B7B2-B8F9-4DBA-915C-0EB5AA7A655Fbackground" cx="10%" cy="10%" r="100%" fx="10%" fy="10%"> 			<stop offset="0%" stop-color="#ffffff" stop-opacity="1" id="_02B8B7B2-B8F9-4DBA-915C-0EB5AA7A655F__02B8B7B2-B8F9-4DBA-915C-0EB5AA7A655F_6"/> 			<stop id="_02B8B7B2-B8F9-4DBA-915C-0EB5AA7A655Ffill_el" offset="100%" stop-color="#ff6347" stop-opacity="1"/> 		</radialGradient> 		<radialGradient id="_02B8B7B2-B8F9-4DBA-915C-0EB5AA7A655Fborderbackground" cx="10%" cy="10%" r="100%" fx="10%" fy="10%"> 			<stop offset="0%" stop-color="#ffffff" stop-opacity="1" id="_02B8B7B2-B8F9-4DBA-915C-0EB5AA7A655F__02B8B7B2-B8F9-4DBA-915C-0EB5AA7A655F_7"/> 			<stop id="_02B8B7B2-B8F9-4DBA-915C-0EB5AA7A655Ffill_border" offset="100%" stop-color="#000000" stop-opacity="1" stroke="#000000"/> 		</radialGradient> 	</defs> 	     <circle id="_02B8B7B2-B8F9-4DBA-915C-0EB5AA7A655Fbg_frame" cx="14" cy="14" r="14" stroke="#000000" fill="url(#_02B8B7B2-B8F9-4DBA-915C-0EB5AA7A655Fbackground) white" stroke-width="3"/>          <circle id="_02B8B7B2-B8F9-4DBA-915C-0EB5AA7A655Fframe" cx="14" cy="14" r="9" stroke="#000000" fill="url(#_02B8B7B2-B8F9-4DBA-915C-0EB5AA7A655Fborderbackground)" stroke-width="1"/> 	<text font-size="11" id="_02B8B7B2-B8F9-4DBA-915C-0EB5AA7A655Ftext_name" x="14" y="30" oryx:align="top center" stroke="black" stroke-width="0pt" letter-spacing="-0.01px" fill="#000000" text-anchor="middle" transform="rotate(0 14 30)" visibility="inherit" oryx:fontSize="11"><tspan x="14" y="30" dy="11">Fin Error</tspan></text>   </g></g><g class="children" style="overflow:hidden"/><g class="edge"/></g><g class="controls"><g class="dockers"/><g class="magnets" transform="translate(376, 270)"><g pointer-events="all" display="none" transform="translate(6, 6)"><circle cx="8" cy="8" r="4" stroke="none" fill="red" fill-opacity="0.3"/></g></g></g></g></g><g class="edge"><g id="_6E5B312A-816C-4C26-AADF-414C26321A09" bpmn2nodeid="_884017D5-5FD0-486A-B161-A9F8B32EF03D"><g class="stencils"><g class="me"><g pointer-events="painted" bpmn2nodeid="_4E977DF5-DF0C-4B1E-9917-30822B8BE0C9"><path id="_6E5B312A-816C-4C26-AADF-414C26321A09_1" d="M150.21875 180L224.78125 180 " stroke="#000000" fill="none" stroke-width="2" stroke-linecap="round" stroke-linejoin="round" marker-start="url(#_6E5B312A-816C-4C26-AADF-414C26321A09start)" marker-end="url(#_6E5B312A-816C-4C26-AADF-414C26321A09end)"/></g><text id="_6E5B312A-816C-4C26-AADF-414C26321A09text_name" font-size="12" x="164.21875" y="166" oryx:edgePosition="startTop" stroke-width="0pt" letter-spacing="-0.01px" fill="#000000" text-anchor="start" transform="rotate(360 150.21875 180)" visibility="inherit" oryx:fontSize="12"/></g><g class="children" style="overflow:hidden"/><g class="edge"/></g><g class="controls"><g class="dockers"/><g class="magnets"/></g></g><g id="_56984712-23AC-45DD-AD1B-8A8A4F164A2A" bpmn2nodeid="_2E03C21F-E525-4099-8BE8-F7A8554A70BF"><g class="stencils"><g class="me"><g pointer-events="painted" bpmn2nodeid="_7B7EE262-C20A-4EAD-B258-4A7918A8DD51"><path id="_56984712-23AC-45DD-AD1B-8A8A4F164A2A_1" d="M325.4140625 180L370.1328125 180 " stroke="#000000" fill="none" stroke-width="2" stroke-linecap="round" stroke-linejoin="round" marker-start="url(#_56984712-23AC-45DD-AD1B-8A8A4F164A2Astart)" marker-end="url(#_56984712-23AC-45DD-AD1B-8A8A4F164A2Aend)"/></g><text id="_56984712-23AC-45DD-AD1B-8A8A4F164A2Atext_name" font-size="12" x="339.4140625" y="166" oryx:edgePosition="startTop" stroke-width="0pt" letter-spacing="-0.01px" fill="#000000" text-anchor="start" transform="rotate(360 325.4140625 180)" visibility="inherit" oryx:fontSize="12"/></g><g class="children" style="overflow:hidden"/><g class="edge"/></g><g class="controls"><g class="dockers"/><g class="magnets"/></g></g><g id="_17A9CCC3-0EF9-4947-B545-BF0765DE06A4" bpmn2nodeid="_F47A5094-F3F5-44BA-8C8C-E333F72D689D"><g class="stencils"><g class="me"><g pointer-events="painted" bpmn2nodeid="_8FEAE45F-0DA7-4E0A-9FC5-EF381CC91F36"><path id="_17A9CCC3-0EF9-4947-B545-BF0765DE06A4_1" d="M410.1328125 180L454.421875 180 " stroke="#000000" fill="none" stroke-width="2" stroke-linecap="round" stroke-linejoin="round" marker-start="url(#_17A9CCC3-0EF9-4947-B545-BF0765DE06A4start)" marker-end="url(#_17A9CCC3-0EF9-4947-B545-BF0765DE06A4end)"/></g><text id="_17A9CCC3-0EF9-4947-B545-BF0765DE06A4text_name" font-size="12" x="424.1328125" y="166" oryx:edgePosition="startTop" stroke-width="0pt" letter-spacing="-0.01px" fill="#000000" text-anchor="start" transform="rotate(360 410.1328125 180)" visibility="inherit" oryx:fontSize="12"><tspan x="424.1328125" y="166" dy="0">apto</tspan></text></g><g class="children" style="overflow:hidden"/><g class="edge"/></g><g class="controls"><g class="dockers"/><g class="magnets"/></g></g><g id="_13BB1197-BC3D-466E-AF81-402E70A96CF5" bpmn2nodeid="_3DFC6182-D6DE-420B-BD62-C233A3FE05F1"><g class="stencils"><g class="me"><g pointer-events="painted" bpmn2nodeid="_AAB9C6F2-1333-4444-80AD-2B76C62BE67F"><path id="_13BB1197-BC3D-466E-AF81-402E70A96CF5_1" d="M390 200.5L390 270 " stroke="#000000" fill="none" stroke-width="2" stroke-linecap="round" stroke-linejoin="round" marker-start="url(#_13BB1197-BC3D-466E-AF81-402E70A96CF5start)" marker-end="url(#_13BB1197-BC3D-466E-AF81-402E70A96CF5end)"/></g><text id="_13BB1197-BC3D-466E-AF81-402E70A96CF5text_name" font-size="12" x="376" y="186.5" oryx:edgePosition="startTop" stroke-width="0pt" letter-spacing="-0.01px" fill="#000000" text-anchor="end" transform="rotate(-90 390 200.5)" visibility="inherit" oryx:fontSize="12"><tspan x="376" y="186.5" dy="0">no apto</tspan></text></g><g class="children" style="overflow:hidden"/><g class="edge"/></g><g class="controls"><g class="dockers"/><g class="magnets"/></g></g></g><text id="_13B31FC6-AFC9-4B97-9530-2EF5326C6EB0" style="stroke-width:1;fill:rgb(177,194,214);font-family:arial;font-weight:bold" font-size="12" onclick="ORYX.Plugins.CanvasTitle.openTextualAnalysis()" onmouseover="ORYX.Plugins.CanvasTitle.addToolTip('_13B31FC6-AFC9-4B97-9530-2EF5326C6EB0')" transform="translate(10, 20)">Validaciones v.1.0 (droolssmg.Validaciones)</text></g></g></svg>