<svg xmlns="http://www.w3.org/2000/svg" xmlns:oryx="http://oryx-editor.org" id="_56481753-CCAB-4EF6-8832-6D0EF62DFC39" width="527.171875" height="354" xmlns:xlink="http://www.w3.org/1999/xlink" xmlns:svg="http://www.w3.org/2000/svg"><defs><marker id="_B0490135-E5A9-409C-B9C8-5785CCF6F2ABstart" refX="1" refY="5" markerUnits="userSpaceOnUse" markerWidth="17" markerHeight="11" orient="auto" fill="#000000" stroke="#000000"> 	  		<path id="_B0490135-E5A9-409C-B9C8-5785CCF6F2ABconditional" d="M 0 5 L 8 0 L 16 5 L 8 10 L 0 5" fill="white" stroke="#000000" stroke-width="1" display="none"/> 			<path id="_B0490135-E5A9-409C-B9C8-5785CCF6F2ABdefault" d="M 5 0 L 11 10" fill="white" stroke="#000000" stroke-width="1" display="none"/> 	  	</marker><marker id="_B0490135-E5A9-409C-B9C8-5785CCF6F2ABend" refX="15" refY="6" markerUnits="userSpaceOnUse" markerWidth="15" markerHeight="12" orient="auto" fill="#000000" stroke="#000000"> 	  		<path id="_B0490135-E5A9-409C-B9C8-5785CCF6F2ABframe2" d="M 0 1 L 15 6 L 0 11z" fill="#000000" stroke="#000000" stroke-linejoin="round" stroke-width="2"/> 	  	</marker><marker id="_FA1C5483-1214-418C-8FAA-0FDD852B9D81start" refX="1" refY="5" markerUnits="userSpaceOnUse" markerWidth="17" markerHeight="11" orient="auto" fill="#000000" stroke="#000000"> 	  		<path id="_FA1C5483-1214-418C-8FAA-0FDD852B9D81conditional" d="M 0 5 L 8 0 L 16 5 L 8 10 L 0 5" fill="white" stroke="#000000" stroke-width="1" display="none"/> 			<path id="_FA1C5483-1214-418C-8FAA-0FDD852B9D81default" d="M 5 0 L 11 10" fill="white" stroke="#000000" stroke-width="1" display="none"/> 	  	</marker><marker id="_FA1C5483-1214-418C-8FAA-0FDD852B9D81end" refX="15" refY="6" markerUnits="userSpaceOnUse" markerWidth="15" markerHeight="12" orient="auto" fill="#000000" stroke="#000000"> 	  		<path id="_FA1C5483-1214-418C-8FAA-0FDD852B9D81frame2" d="M 0 1 L 15 6 L 0 11z" fill="#000000" stroke="#000000" stroke-linejoin="round" stroke-width="2"/> 	  	</marker><marker id="_F2FAC9E1-6585-4B31-9AC9-3084092255E8start" refX="1" refY="5" markerUnits="userSpaceOnUse" markerWidth="17" markerHeight="11" orient="auto" fill="#000000" stroke="#000000"> 	  		<path id="_F2FAC9E1-6585-4B31-9AC9-3084092255E8conditional" d="M 0 5 L 8 0 L 16 5 L 8 10 L 0 5" fill="white" stroke="#000000" stroke-width="1" display="none"/> 			<path id="_F2FAC9E1-6585-4B31-9AC9-3084092255E8default" d="M 5 0 L 11 10" fill="white" stroke="#000000" stroke-width="1" display="none"/> 	  	</marker><marker id="_F2FAC9E1-6585-4B31-9AC9-3084092255E8end" refX="15" refY="6" markerUnits="userSpaceOnUse" markerWidth="15" markerHeight="12" orient="auto" fill="#000000" stroke="#000000"> 	  		<path id="_F2FAC9E1-6585-4B31-9AC9-3084092255E8frame2" d="M 0 1 L 15 6 L 0 11z" fill="#000000" stroke="#000000" stroke-linejoin="round" stroke-width="2"/> 	  	</marker><marker id="_E300424F-8434-4B06-A6AD-97E9EDC4D8BCstart" refX="1" refY="5" markerUnits="userSpaceOnUse" markerWidth="17" markerHeight="11" orient="auto" fill="#000000" stroke="#000000"> 	  		<path id="_E300424F-8434-4B06-A6AD-97E9EDC4D8BCconditional" d="M 0 5 L 8 0 L 16 5 L 8 10 L 0 5" fill="white" stroke="#000000" stroke-width="1" display="none"/> 			<path id="_E300424F-8434-4B06-A6AD-97E9EDC4D8BCdefault" d="M 5 0 L 11 10" fill="white" stroke="#000000" stroke-width="1" display="none"/> 	  	</marker><marker id="_E300424F-8434-4B06-A6AD-97E9EDC4D8BCend" refX="15" refY="6" markerUnits="userSpaceOnUse" markerWidth="15" markerHeight="12" orient="auto" fill="#000000" stroke="#000000"> 	  		<path id="_E300424F-8434-4B06-A6AD-97E9EDC4D8BCframe2" d="M 0 1 L 15 6 L 0 11z" fill="#000000" stroke="#000000" stroke-linejoin="round" stroke-width="2"/> 	  	</marker></defs><g stroke="none" font-family="Verdana, sans-serif" font-size-adjust="none" font-style="normal" font-variant="normal" font-weight="normal" line-heigth="normal" font-size="12"><g class="stencils" transform="translate(15, 16)"><g class="me"/><g class="children"><g id="_B45A4E35-C867-46A6-BB2F-F0D013BE0295" bpmn2nodeid="processStartEvent"><g class="stencils" transform="translate(120, 165)"><g class="me"><g pointer-events="fill" id="_B45A4E35-C867-46A6-BB2F-F0D013BE0295">        <defs id="_B45A4E35-C867-46A6-BB2F-F0D013BE0295__B45A4E35-C867-46A6-BB2F-F0D013BE0295_5"> 		<radialGradient id="_B45A4E35-C867-46A6-BB2F-F0D013BE0295background" cx="10%" cy="10%" r="100%" fx="10%" fy="10%"> 			<stop offset="0%" stop-color="#ffffff" stop-opacity="1" id="_B45A4E35-C867-46A6-BB2F-F0D013BE0295__B45A4E35-C867-46A6-BB2F-F0D013BE0295_6"/> 			<stop id="_B45A4E35-C867-46A6-BB2F-F0D013BE0295fill_el" offset="100%" stop-color="#9acd32" stop-opacity="1"/> 		</radialGradient> 	</defs> 	     <circle id="_B45A4E35-C867-46A6-BB2F-F0D013BE0295bg_frame" cx="15" cy="15" r="15" stroke="#000000" fill="url(#_B45A4E35-C867-46A6-BB2F-F0D013BE0295background) white" stroke-width="1" style="stroke-dasharray: 5.5, 3"/>      <circle id="_B45A4E35-C867-46A6-BB2F-F0D013BE0295frame" cx="15" cy="15" r="15" stroke="#000000" fill="none" stroke-width="1" display="inherit"/>  	<text font-size="11" id="_B45A4E35-C867-46A6-BB2F-F0D013BE0295text_name" x="15" y="32" oryx:align="top center" stroke="black" stroke-width="0pt" letter-spacing="-0.01px" fill="#000000" text-anchor="middle" transform="rotate(0 15 32)" visibility="inherit" oryx:fontSize="11"/>   </g></g><g class="children" style="overflow:hidden"/><g class="edge"/></g><g class="controls"><g class="dockers"/><g class="magnets" transform="translate(120, 165)"><g pointer-events="all" display="none" transform="translate(7, 7)"><circle cx="8" cy="8" r="4" stroke="none" fill="red" fill-opacity="0.3"/></g></g></g></g><g id="_1F2CD31B-3564-4CE1-BADA-759124201F8A" bpmn2nodeid="_87E4A380-29D8-4898-AF68-62E4A05E33D6"><g class="stencils" transform="translate(225, 140)"><g class="me"><g pointer-events="fill" oryx:minimumSize="50 40" id="_1F2CD31B-3564-4CE1-BADA-759124201F8A">   	<defs id="_1F2CD31B-3564-4CE1-BADA-759124201F8A__1F2CD31B-3564-4CE1-BADA-759124201F8A_17"> 		<radialGradient id="_1F2CD31B-3564-4CE1-BADA-759124201F8Abackground" cx="10%" cy="10%" r="100%" fx="10%" fy="10%"> 			<stop offset="0%" stop-color="#ffffff" stop-opacity="1" id="_1F2CD31B-3564-4CE1-BADA-759124201F8A__1F2CD31B-3564-4CE1-BADA-759124201F8A_18"/> 			<stop id="_1F2CD31B-3564-4CE1-BADA-759124201F8Afill_el" offset="100%" stop-color="#fafad2" stop-opacity="1"/> 		</radialGradient> 		<radialGradient id="_1F2CD31B-3564-4CE1-BADA-759124201F8Aborderbackground" cx="10%" cy="10%" r="100%" fx="10%" fy="10%"> 			<stop offset="0%" stop-color="#ffffff" stop-opacity="1" id="_1F2CD31B-3564-4CE1-BADA-759124201F8A__1F2CD31B-3564-4CE1-BADA-759124201F8A_19"/> 			<stop id="_1F2CD31B-3564-4CE1-BADA-759124201F8Afill_border" offset="100%" stop-color="#000000" stop-opacity="1" stroke="#000000"/> 		</radialGradient> 	</defs> 	 	<rect id="_1F2CD31B-3564-4CE1-BADA-759124201F8Atext_frame" oryx:anchors="bottom top right left" x="1" y="1" width="94" height="79" rx="10" ry="10" stroke="none" stroke-width="0" fill="none"/> 	<rect id="_1F2CD31B-3564-4CE1-BADA-759124201F8Abg_frame" oryx:resize="vertical horizontal" x="0" y="0" width="100" height="80" rx="10" ry="10" stroke="#000000" stroke-width="1" fill="url(#_1F2CD31B-3564-4CE1-BADA-759124201F8Abackground) #ffffcc"/> 		<text font-size="12" id="_1F2CD31B-3564-4CE1-BADA-759124201F8Atext_name" x="50" y="40" oryx:align="middle center" oryx:fittoelem="text_frame" stroke="black" text-anchor="middle" stroke-width="0pt" letter-spacing="-0.01px" fill="#000000" transform="rotate(0 50 40)" visibility="inherit" oryx:fontSize="12"><tspan x="50" y="40" dy="5">Apto servicio</tspan></text>     <g id="_1F2CD31B-3564-4CE1-BADA-759124201F8AmanualTask" transform="scale(0.7,0.7) translate(8,8)" display="none">     	<path oryx:anchors="top left" id="_1F2CD31B-3564-4CE1-BADA-759124201F8Aframe" style="opacity:1;fill:none;fill-opacity:1;stroke-width:1" d="M0.5,3.751l4.083-3.25c0,0,11.166,0.083,12.083,0.083s-2.417,2.917-1.5,2.917     s11.667,0,12.584,0c1.166,1.708-0.168,3.167-0.834,3.667s0.875,1.917-1,4.417c-0.75,0.25,0.75,1.875-1.333,3.333     c-1.167,0.583,0.583,1.542-1.25,2.833c-1.167,0-20.833,0.083-20.833,0.083l-2-1.333V3.751z" stroke="#000000"/> 		<path id="_1F2CD31B-3564-4CE1-BADA-759124201F8Aframe2" oryx:anchors="top left" style="opacity:1;fill:none;stroke-width:2" d="M 13.5 7 L 27 7" stroke="#000000"/> 		<path id="_1F2CD31B-3564-4CE1-BADA-759124201F8Aframe3" oryx:anchors="top left" style="opacity:1;fill:none;stroke-width:2" d="M 13.5 11 L 26 11" stroke="#000000"/> 		<path id="_1F2CD31B-3564-4CE1-BADA-759124201F8Aframe4" oryx:anchors="top left" style="opacity:1;fill:none;stroke-width:1.5" d="M 14 14.5 L 25 14.5" stroke="#000000"/> 		<path id="_1F2CD31B-3564-4CE1-BADA-759124201F8Aframe5" oryx:anchors="top left" style="opacity:1;fill:none;stroke-width:1.5" d="M 8.2 3.1 L 15 3.1" stroke="#000000"/> 	</g> 	 	<g id="_1F2CD31B-3564-4CE1-BADA-759124201F8AbusinessRuleTask" transform="scale(0.7,0.7) translate(8,8)" display="inherit"> 		<rect id="_1F2CD31B-3564-4CE1-BADA-759124201F8Aframe6" oryx:anchors="top left" x="0" y="0" width="22" height="4" style="opacity:1;fill:#B3B1B3;fill-opacity:1;" stroke="#000000"/> 		<rect id="_1F2CD31B-3564-4CE1-BADA-759124201F8Aframe7" oryx:anchors="top left" x="0" y="4" style="opacity:1;fill:none;" width="22" height="12" stroke="#000000"/> 		<path id="_1F2CD31B-3564-4CE1-BADA-759124201F8Aframe8" oryx:anchors="top left" style="opacity:1;fill:none;" d="M 0 10 L 22 10" stroke="#000000"/> 		<path id="_1F2CD31B-3564-4CE1-BADA-759124201F8Aframe9" oryx:anchors="top left" style="opacity:1; fill:none;" d="M 7 4 L 7 16" stroke="#000000"/> 	</g> 	 	<g id="_1F2CD31B-3564-4CE1-BADA-759124201F8AscriptTask" transform="scale(0.7,0.7) translate(8,8)" display="none"> 		<path oryx:anchors="top left" id="_1F2CD31B-3564-4CE1-BADA-759124201F8Aframe10" style="opacity:1;fill:none;" stroke="#000000" d="M6.402,0.5h14.5c0,0-5.833,2.833-5.833,5.583s4.417,6,4.417,9.167    s-4.167,5.083-4.167,5.083H0.235c0,0,5-2.667,5-5s-4.583-6.75-4.583-9.25S6.402,0.5,6.402,0.5z"/> 		<path oryx:anchors="top left" id="_1F2CD31B-3564-4CE1-BADA-759124201F8Aframe11" style="opacity:1;fill:none;stroke-width:1.5" d="M 3.5 4.5 L 13.5 4.5" stroke="#000000"/> 		<path oryx:anchors="top left" id="_1F2CD31B-3564-4CE1-BADA-759124201F8Aframe12" style="opacity:1;fill:none;stroke-width:1.5" d="M 3.8 8.5 L 13.8 8.5" stroke="#000000"/> 		<path oryx:anchors="top left" id="_1F2CD31B-3564-4CE1-BADA-759124201F8Aframe13" style="opacity:1;fill:none;stroke-width:1.5" d="M 6.3 12.5 L 16.3 12.5" stroke="#000000"/> 		<path oryx:anchors="top left" id="_1F2CD31B-3564-4CE1-BADA-759124201F8Aframe14" style="opacity:1;fill:none;stroke-width:1.5" d="M 6.5 16.5 L 16.5 16.5" stroke="#000000"/> 	</g> 	 	<g id="_1F2CD31B-3564-4CE1-BADA-759124201F8AuserTask" transform="scale(0.7,0.7) translate(8,8)" display="none"> 		<path id="_1F2CD31B-3564-4CE1-BADA-759124201F8Aframe15" oryx:anchors="top left" style="opacity:1;fill:#F4F6F7" stroke="#000000" d="M0.585,24.167h24.083v-7.833c0,0-2.333-3.917-7.083-5.167h-9.25    c-4.417,1.333-7.833,5.75-7.833,5.75L0.585,24.167z"/> 		<path id="_1F2CD31B-3564-4CE1-BADA-759124201F8Aframe16" oryx:anchors="top left" style="opacity:1;fill:none" d="M 6 20 L 6 24" stroke="#000000"/> 		<path id="_1F2CD31B-3564-4CE1-BADA-759124201F8Aframe17" oryx:anchors="top left" style="opacity:1;fill:none" d="M 20 20 L 20 24" stroke="#000000"/> 		<circle id="_1F2CD31B-3564-4CE1-BADA-759124201F8Aframe18" oryx:anchors="top left" fill="black" cx="13.002" cy="5.916" r="5.417" stroke="#000000"/> 		<path id="_1F2CD31B-3564-4CE1-BADA-759124201F8Aframe19" oryx:anchors="top left" style="opacity:1;fill:#F0EFF0;" stroke="#000000" d="M8.043,7.083c0,0,2.814-2.426,5.376-1.807s4.624-0.693,4.624-0.693    c0.25,1.688,0.042,3.75-1.458,5.584c0,0,1.083,0.75,1.083,1.5s0.125,1.875-1,3s-5.5,1.25-6.75,0S8.668,12.834,8.668,12    s0.583-1.25,1.25-1.917C8.835,9.5,7.419,7.708,8.043,7.083z"/> 	</g> 	 	<g id="_1F2CD31B-3564-4CE1-BADA-759124201F8AserviceTask" transform="scale(0.7,0.7) translate(8,8)" display="none"> 		<polygon oryx:anchors="top left" id="_1F2CD31B-3564-4CE1-BADA-759124201F8Aframe20" style="opacity:1;fill:#ffffff" stroke="#000000" points="15.392,5.064 17.954,2.502 20.347,4.895 17.786,7.455     18.729,9.732 22.353,9.732 22.353,13.115 18.731,13.115 17.788,15.392 20.351,17.955 17.958,20.347 15.397,17.786 13.12,18.729     13.12,22.353 9.737,22.353 9.737,18.731 7.46,17.788 4.897,20.35 2.506,17.958 5.066,15.397 4.124,13.12 0.5,13.12 0.5,9.737     4.121,9.737 5.065,7.461 2.503,4.898 4.895,2.506 7.455,5.066 9.732,4.125 9.732,0.5 13.116,0.5 13.116,4.121 "/> 		<circle oryx:anchors="top left" id="_1F2CD31B-3564-4CE1-BADA-759124201F8Aframe21" style="opacity:1;fill:none" stroke="#000000" cx="11.427" cy="11.426" r="3.714"/> 		<polygon oryx:anchors="top left" id="_1F2CD31B-3564-4CE1-BADA-759124201F8Aframe22" style="opacity:1;fill:#ffffff" stroke="#000000" points="21.392,11.064 23.954,8.502 26.347,10.895 23.786,13.455     24.729,15.732 28.353,15.732 28.353,19.115 24.731,19.115 23.788,21.392 26.351,23.955 23.958,26.347 21.397,23.786 19.12,24.729     19.12,28.353 15.737,28.353 15.737,24.731 13.46,23.788 10.897,26.35 8.506,23.958 11.066,21.397 10.124,19.12 6.5,19.12     6.5,15.737 10.121,15.737 11.065,13.461 8.503,10.898 10.895,8.506 13.455,11.066 15.732,10.125 15.732,6.5 19.116,6.5     19.116,10.121 "/> 		<circle oryx:anchors="top left" id="_1F2CD31B-3564-4CE1-BADA-759124201F8Aframe23" style="opacity:1;fill:none;" stroke="#000000" cx="17.427" cy="17.426" r="3.714"/> 	</g> 	 	<g id="_1F2CD31B-3564-4CE1-BADA-759124201F8AsendTask" display="none"> 		<path id="_1F2CD31B-3564-4CE1-BADA-759124201F8Astframe24" oryx:anchors="left top" stroke="#FFFFFF" fill="black" stroke-width="1" d="M8,11 L8,21 L24,21 L24,11 L16,17z"/> 		<path id="_1F2CD31B-3564-4CE1-BADA-759124201F8Astframe25" oryx:anchors="left top" stroke="#FFFFFF" fill="black" stroke-width="1" d="M7,10 L16,17 L25 10z"/> 	</g> 	 	<g id="_1F2CD31B-3564-4CE1-BADA-759124201F8AreceiveTask" display="none"> 		<path id="_1F2CD31B-3564-4CE1-BADA-759124201F8Aframe26" oryx:anchors="left top" stroke="#000000" fill="none" stroke-width="1" d="M8,11 L8,21 L24,21 L24,11z M8,11 L16,17 L24,11"/> 	</g> 	 	<g id="_1F2CD31B-3564-4CE1-BADA-759124201F8Anone" display="inherit"/>  	<g id="_1F2CD31B-3564-4CE1-BADA-759124201F8Asequential" display="none">         <path oryx:anchors="bottom" fill="none" stroke="#000000" stroke-width="2" d="M46,76h10M46,72h10 M46,68h10" id="_1F2CD31B-3564-4CE1-BADA-759124201F8A__1F2CD31B-3564-4CE1-BADA-759124201F8A_20"/>     </g>   </g></g><g class="children" style="overflow:hidden"/><g class="edge"/></g><g class="controls"><g class="dockers"/><g class="magnets" transform="translate(225, 140)"><g pointer-events="all" display="none" transform="translate(-7, 12)"><circle cx="8" cy="8" r="4" stroke="none" fill="red" fill-opacity="0.3"/></g><g pointer-events="all" display="none" transform="translate(-7, 32)"><circle cx="8" cy="8" r="4" stroke="none" fill="red" fill-opacity="0.3"/></g><g pointer-events="all" display="none" transform="translate(-7, 52)"><circle cx="8" cy="8" r="4" stroke="none" fill="red" fill-opacity="0.3"/></g><g pointer-events="all" display="none" transform="translate(17, 71)"><circle cx="8" cy="8" r="4" stroke="none" fill="red" fill-opacity="0.3"/></g><g pointer-events="all" display="none" transform="translate(42, 71)"><circle cx="8" cy="8" r="4" stroke="none" fill="red" fill-opacity="0.3"/></g><g pointer-events="all" display="none" transform="translate(67, 71)"><circle cx="8" cy="8" r="4" stroke="none" fill="red" fill-opacity="0.3"/></g><g pointer-events="all" display="none" transform="translate(91, 12)"><circle cx="8" cy="8" r="4" stroke="none" fill="red" fill-opacity="0.3"/></g><g pointer-events="all" display="none" transform="translate(91, 32)"><circle cx="8" cy="8" r="4" stroke="none" fill="red" fill-opacity="0.3"/></g><g pointer-events="all" display="none" transform="translate(91, 52)"><circle cx="8" cy="8" r="4" stroke="none" fill="red" fill-opacity="0.3"/></g><g pointer-events="all" display="none" transform="translate(17, -7)"><circle cx="8" cy="8" r="4" stroke="none" fill="red" fill-opacity="0.3"/></g><g pointer-events="all" display="none" transform="translate(42, -7)"><circle cx="8" cy="8" r="4" stroke="none" fill="red" fill-opacity="0.3"/></g><g pointer-events="all" display="none" transform="translate(67, -7)"><circle cx="8" cy="8" r="4" stroke="none" fill="red" fill-opacity="0.3"/></g><g pointer-events="all" display="none" transform="translate(42, 32)"><circle cx="8" cy="8" r="4" stroke="none" fill="red" fill-opacity="0.3"/></g></g></g></g><g id="_C7EDA734-B72B-4DBB-A68F-C2ADC094468A" bpmn2nodeid="_0D7B863D-FAC7-45A1-B9A9-9E495AD72324"><g class="stencils" transform="translate(370, 160)"><g class="me"><g id="_C7EDA734-B72B-4DBB-A68F-C2ADC094468A">        <defs id="_C7EDA734-B72B-4DBB-A68F-C2ADC094468A__C7EDA734-B72B-4DBB-A68F-C2ADC094468A_4"> 		<radialGradient id="_C7EDA734-B72B-4DBB-A68F-C2ADC094468Abackground" cx="10%" cy="10%" r="100%" fx="10%" fy="10%"> 			<stop offset="0%" stop-color="#ffffff" stop-opacity="1" id="_C7EDA734-B72B-4DBB-A68F-C2ADC094468A__C7EDA734-B72B-4DBB-A68F-C2ADC094468A_5"/> 			<stop id="_C7EDA734-B72B-4DBB-A68F-C2ADC094468Afill_el" offset="100%" stop-color="#f0e68c" stop-opacity="1"/> 		</radialGradient> 		<radialGradient id="_C7EDA734-B72B-4DBB-A68F-C2ADC094468Aborderbackground" cx="10%" cy="10%" r="100%" fx="10%" fy="10%"> 			<stop offset="0%" stop-color="#ffffff" stop-opacity="1" id="_C7EDA734-B72B-4DBB-A68F-C2ADC094468A__C7EDA734-B72B-4DBB-A68F-C2ADC094468A_6"/> 			<stop id="_C7EDA734-B72B-4DBB-A68F-C2ADC094468Afill_border" offset="100%" stop-color="#a67f00" stop-opacity="1" stroke="#a67f00"/> 		</radialGradient> 	</defs> 	     <path d=" M0 20.5  L20.5 0  L40 20.5  L20.5 40  z" id="_C7EDA734-B72B-4DBB-A68F-C2ADC094468Abg_frame" fill="url(#_C7EDA734-B72B-4DBB-A68F-C2ADC094468Abackground) white" style="stroke-width:1" stroke="#a67f00"/>     <g id="_C7EDA734-B72B-4DBB-A68F-C2ADC094468Aframe" stroke="#a67f00">       <path id="_C7EDA734-B72B-4DBB-A68F-C2ADC094468Aframe2" d=" M13.25 12.05  L17.25 12.05  L27.65 28.95  L23.75 28.95  z" style="stroke-width:1" stroke="#a67f00" fill="url(#_C7EDA734-B72B-4DBB-A68F-C2ADC094468Aborderbackground)"/>       <path id="_C7EDA734-B72B-4DBB-A68F-C2ADC094468Aframe3" d=" M13.25 28.95  L23.75 12.05  L27.65 12.05  L17.25 28.95  z" style="stroke-width:1" stroke="#a67f00" fill="url(#_C7EDA734-B72B-4DBB-A68F-C2ADC094468Aborderbackground)"/>     </g> 	 	<text id="_C7EDA734-B72B-4DBB-A68F-C2ADC094468Atext_name" x="30.5" y="30.5" oryx:align="left top" stroke-width="0pt" letter-spacing="-0.01px" fill="#000000" text-anchor="start" transform="rotate(0 30.5 30.5)" visibility="inherit" oryx:fontSize="12"/> 	   </g></g><g class="children" style="overflow:hidden"/><g class="edge"/></g><g class="controls"><g class="dockers"/><g class="magnets" transform="translate(370, 160)"><g pointer-events="all" display="none" transform="translate(12.5, 12.5)"><circle cx="8" cy="8" r="4" stroke="none" fill="red" fill-opacity="0.3"/></g></g></g></g><g id="_4140152A-05F2-4DC3-B0B2-09B5A0E87DB3" bpmn2nodeid="_EA40E826-31A9-40E5-AD26-8F556EB692DC"><g class="stencils" transform="translate(455, 166)"><g class="me"><g pointer-events="fill" id="_4140152A-05F2-4DC3-B0B2-09B5A0E87DB3">       <defs id="_4140152A-05F2-4DC3-B0B2-09B5A0E87DB3__4140152A-05F2-4DC3-B0B2-09B5A0E87DB3_5"> 		<radialGradient id="_4140152A-05F2-4DC3-B0B2-09B5A0E87DB3background" cx="10%" cy="10%" r="100%" fx="10%" fy="10%"> 			<stop offset="0%" stop-color="#ffffff" stop-opacity="1" id="_4140152A-05F2-4DC3-B0B2-09B5A0E87DB3__4140152A-05F2-4DC3-B0B2-09B5A0E87DB3_6"/> 			<stop id="_4140152A-05F2-4DC3-B0B2-09B5A0E87DB3fill_el" offset="100%" stop-color="#ff6347" stop-opacity="1"/> 		</radialGradient> 		<radialGradient id="_4140152A-05F2-4DC3-B0B2-09B5A0E87DB3borderbackground" cx="10%" cy="10%" r="100%" fx="10%" fy="10%"> 			<stop offset="0%" stop-color="#ffffff" stop-opacity="1" id="_4140152A-05F2-4DC3-B0B2-09B5A0E87DB3__4140152A-05F2-4DC3-B0B2-09B5A0E87DB3_7"/> 			<stop id="_4140152A-05F2-4DC3-B0B2-09B5A0E87DB3fill_border" offset="100%" stop-color="#000000" stop-opacity="1" stroke="#000000"/> 		</radialGradient> 	</defs> 	     <circle id="_4140152A-05F2-4DC3-B0B2-09B5A0E87DB3bg_frame" cx="14" cy="14" r="14" stroke="#000000" fill="url(#_4140152A-05F2-4DC3-B0B2-09B5A0E87DB3background) white" stroke-width="3"/>          <circle id="_4140152A-05F2-4DC3-B0B2-09B5A0E87DB3frame" cx="14" cy="14" r="9" stroke="#000000" fill="url(#_4140152A-05F2-4DC3-B0B2-09B5A0E87DB3borderbackground)" stroke-width="1"/> 	<text font-size="11" id="_4140152A-05F2-4DC3-B0B2-09B5A0E87DB3text_name" x="14" y="30" oryx:align="top center" stroke="black" stroke-width="0pt" letter-spacing="-0.01px" fill="#000000" text-anchor="middle" transform="rotate(0 14 30)" visibility="inherit" oryx:fontSize="11"><tspan x="14" y="30" dy="11" id="ext-gen838">Fin OK</tspan></text>   </g></g><g class="children" style="overflow:hidden"/><g class="edge"/></g><g class="controls"><g class="dockers"/><g class="magnets" transform="translate(455, 166)"><g pointer-events="all" display="none" transform="translate(6, 6)"><circle cx="8" cy="8" r="4" stroke="none" fill="red" fill-opacity="0.3"/></g></g></g></g><g id="_ABEA3FBD-3972-485D-BA96-FFACDF74D217" bpmn2nodeid="_AF877756-A963-4082-8D94-370CFD0E4D3E"><g class="stencils" transform="translate(376, 270)"><g class="me"><g pointer-events="fill" id="_ABEA3FBD-3972-485D-BA96-FFACDF74D217">       <defs id="_ABEA3FBD-3972-485D-BA96-FFACDF74D217__ABEA3FBD-3972-485D-BA96-FFACDF74D217_5"> 		<radialGradient id="_ABEA3FBD-3972-485D-BA96-FFACDF74D217background" cx="10%" cy="10%" r="100%" fx="10%" fy="10%"> 			<stop offset="0%" stop-color="#ffffff" stop-opacity="1" id="_ABEA3FBD-3972-485D-BA96-FFACDF74D217__ABEA3FBD-3972-485D-BA96-FFACDF74D217_6"/> 			<stop id="_ABEA3FBD-3972-485D-BA96-FFACDF74D217fill_el" offset="100%" stop-color="#ff6347" stop-opacity="1"/> 		</radialGradient> 		<radialGradient id="_ABEA3FBD-3972-485D-BA96-FFACDF74D217borderbackground" cx="10%" cy="10%" r="100%" fx="10%" fy="10%"> 			<stop offset="0%" stop-color="#ffffff" stop-opacity="1" id="_ABEA3FBD-3972-485D-BA96-FFACDF74D217__ABEA3FBD-3972-485D-BA96-FFACDF74D217_7"/> 			<stop id="_ABEA3FBD-3972-485D-BA96-FFACDF74D217fill_border" offset="100%" stop-color="#000000" stop-opacity="1" stroke="#000000"/> 		</radialGradient> 	</defs> 	     <circle id="_ABEA3FBD-3972-485D-BA96-FFACDF74D217bg_frame" cx="14" cy="14" r="14" stroke="#000000" fill="url(#_ABEA3FBD-3972-485D-BA96-FFACDF74D217background) white" stroke-width="3"/>          <circle id="_ABEA3FBD-3972-485D-BA96-FFACDF74D217frame" cx="14" cy="14" r="9" stroke="#000000" fill="url(#_ABEA3FBD-3972-485D-BA96-FFACDF74D217borderbackground)" stroke-width="1"/> 	<text font-size="11" id="_ABEA3FBD-3972-485D-BA96-FFACDF74D217text_name" x="14" y="30" oryx:align="top center" stroke="black" stroke-width="0pt" letter-spacing="-0.01px" fill="#000000" text-anchor="middle" transform="rotate(0 14 30)" visibility="inherit" oryx:fontSize="11"><tspan x="14" y="30" dy="11">Fin Error</tspan></text>   </g></g><g class="children" style="overflow:hidden"/><g class="edge"/></g><g class="controls"><g class="dockers"/><g class="magnets" transform="translate(376, 270)"><g pointer-events="all" display="none" transform="translate(6, 6)"><circle cx="8" cy="8" r="4" stroke="none" fill="red" fill-opacity="0.3"/></g></g></g></g></g><g class="edge"><g id="_B0490135-E5A9-409C-B9C8-5785CCF6F2AB" bpmn2nodeid="_884017D5-5FD0-486A-B161-A9F8B32EF03D"><g class="stencils"><g class="me"><g pointer-events="painted" bpmn2nodeid="_A7AEE992-E41D-4F06-816C-CA5A9953AEBA"><path id="_B0490135-E5A9-409C-B9C8-5785CCF6F2AB_1" d="M150.21875 180L224.78125 180 " stroke="#000000" fill="none" stroke-width="2" stroke-linecap="round" stroke-linejoin="round" marker-start="url(#_B0490135-E5A9-409C-B9C8-5785CCF6F2ABstart)" marker-end="url(#_B0490135-E5A9-409C-B9C8-5785CCF6F2ABend)"/></g><text id="_B0490135-E5A9-409C-B9C8-5785CCF6F2ABtext_name" font-size="12" x="164.21875" y="166" oryx:edgePosition="startTop" stroke-width="0pt" letter-spacing="-0.01px" fill="#000000" text-anchor="start" transform="rotate(360 150.21875 180)" visibility="inherit" oryx:fontSize="12"/></g><g class="children" style="overflow:hidden"/><g class="edge"/></g><g class="controls"><g class="dockers"/><g class="magnets"/></g></g><g id="_FA1C5483-1214-418C-8FAA-0FDD852B9D81" bpmn2nodeid="_2E03C21F-E525-4099-8BE8-F7A8554A70BF"><g class="stencils"><g class="me"><g pointer-events="painted" bpmn2nodeid="_86F2A84F-6188-4BC5-A0EC-F35719561D10"><path id="_FA1C5483-1214-418C-8FAA-0FDD852B9D81_1" d="M325.4140625 180L370.1328125 180 " stroke="#000000" fill="none" stroke-width="2" stroke-linecap="round" stroke-linejoin="round" marker-start="url(#_FA1C5483-1214-418C-8FAA-0FDD852B9D81start)" marker-end="url(#_FA1C5483-1214-418C-8FAA-0FDD852B9D81end)"/></g><text id="_FA1C5483-1214-418C-8FAA-0FDD852B9D81text_name" font-size="12" x="339.4140625" y="166" oryx:edgePosition="startTop" stroke-width="0pt" letter-spacing="-0.01px" fill="#000000" text-anchor="start" transform="rotate(360 325.4140625 180)" visibility="inherit" oryx:fontSize="12"/></g><g class="children" style="overflow:hidden"/><g class="edge"/></g><g class="controls"><g class="dockers"/><g class="magnets"/></g></g><g id="_F2FAC9E1-6585-4B31-9AC9-3084092255E8" bpmn2nodeid="_F47A5094-F3F5-44BA-8C8C-E333F72D689D"><g class="stencils"><g class="me"><g pointer-events="painted" bpmn2nodeid="_08140F31-D97F-4519-AEF2-85F7EB45DFAD"><path id="_F2FAC9E1-6585-4B31-9AC9-3084092255E8_1" d="M410.1328125 180L454.421875 180 " stroke="#000000" fill="none" stroke-width="2" stroke-linecap="round" stroke-linejoin="round" marker-start="url(#_F2FAC9E1-6585-4B31-9AC9-3084092255E8start)" marker-end="url(#_F2FAC9E1-6585-4B31-9AC9-3084092255E8end)"/></g><text id="_F2FAC9E1-6585-4B31-9AC9-3084092255E8text_name" font-size="12" x="424.1328125" y="166" oryx:edgePosition="startTop" stroke-width="0pt" letter-spacing="-0.01px" fill="#000000" text-anchor="start" transform="rotate(360 410.1328125 180)" visibility="inherit" oryx:fontSize="12"><tspan x="424.1328125" y="166" dy="0" id="ext-gen603">apto</tspan></text></g><g class="children" style="overflow:hidden"/><g class="edge"/></g><g class="controls"><g class="dockers"/><g class="magnets"/></g></g><g id="_E300424F-8434-4B06-A6AD-97E9EDC4D8BC" bpmn2nodeid="_3DFC6182-D6DE-420B-BD62-C233A3FE05F1"><g class="stencils"><g class="me"><g pointer-events="painted" bpmn2nodeid="_B37B4614-A326-4B19-B9B3-4FEABEC1538C"><path id="_E300424F-8434-4B06-A6AD-97E9EDC4D8BC_1" d="M390 200.5L390 270 " stroke="#000000" fill="none" stroke-width="2" stroke-linecap="round" stroke-linejoin="round" marker-start="url(#_E300424F-8434-4B06-A6AD-97E9EDC4D8BCstart)" marker-end="url(#_E300424F-8434-4B06-A6AD-97E9EDC4D8BCend)"/></g><text id="_E300424F-8434-4B06-A6AD-97E9EDC4D8BCtext_name" font-size="12" x="376" y="186.5" oryx:edgePosition="startTop" stroke-width="0pt" letter-spacing="-0.01px" fill="#000000" text-anchor="end" transform="rotate(-90 390 200.5)" visibility="inherit" oryx:fontSize="12"><tspan x="376" y="186.5" dy="0" id="ext-gen1035">no apto</tspan></text></g><g class="children" style="overflow:hidden"/><g class="edge"/></g><g class="controls"><g class="dockers"/><g class="magnets"/></g></g></g><text id="_BCB43EE1-BD3D-4A70-9FAB-B8535D2DA4EB" style="stroke-width:1;fill:rgb(177,194,214);font-family:arial;font-weight:bold" font-size="12" onclick="ORYX.Plugins.CanvasTitle.openTextualAnalysis()" onmouseover="ORYX.Plugins.CanvasTitle.addToolTip('_BCB43EE1-BD3D-4A70-9FAB-B8535D2DA4EB')" transform="translate(10, 20)">Validaciones v.1.0 (droolssmg.Validaciones)</text></g></g></svg>