<svg xmlns="http://www.w3.org/2000/svg" xmlns:oryx="http://oryx-editor.org" id="_DA0A741E-62A8-4A30-9BEF-7563AB130616" width="527.171875" height="354.5" xmlns:xlink="http://www.w3.org/1999/xlink" xmlns:svg="http://www.w3.org/2000/svg"><defs><marker id="_5BFF3852-4861-45EE-B903-F9D9F0D80286start" refX="1" refY="5" markerUnits="userSpaceOnUse" markerWidth="17" markerHeight="11" orient="auto" fill="#000000" stroke="#000000"> 	  		<path id="_5BFF3852-4861-45EE-B903-F9D9F0D80286conditional" d="M 0 5 L 8 0 L 16 5 L 8 10 L 0 5" fill="white" stroke="#000000" stroke-width="1" display="none"/> 			<path id="_5BFF3852-4861-45EE-B903-F9D9F0D80286default" d="M 5 0 L 11 10" fill="white" stroke="#000000" stroke-width="1" display="none"/> 	  	</marker><marker id="_5BFF3852-4861-45EE-B903-F9D9F0D80286end" refX="15" refY="6" markerUnits="userSpaceOnUse" markerWidth="15" markerHeight="12" orient="auto" fill="#000000" stroke="#000000"> 	  		<path id="_5BFF3852-4861-45EE-B903-F9D9F0D80286frame2" d="M 0 1 L 15 6 L 0 11z" fill="#000000" stroke="#000000" stroke-linejoin="round" stroke-width="2"/> 	  	</marker><marker id="_E77896CA-2BE4-4D95-8C4E-5A5D08A7CBC5start" refX="1" refY="5" markerUnits="userSpaceOnUse" markerWidth="17" markerHeight="11" orient="auto" fill="#000000" stroke="#000000"> 	  		<path id="_E77896CA-2BE4-4D95-8C4E-5A5D08A7CBC5conditional" d="M 0 5 L 8 0 L 16 5 L 8 10 L 0 5" fill="white" stroke="#000000" stroke-width="1" display="none"/> 			<path id="_E77896CA-2BE4-4D95-8C4E-5A5D08A7CBC5default" d="M 5 0 L 11 10" fill="white" stroke="#000000" stroke-width="1" display="none"/> 	  	</marker><marker id="_E77896CA-2BE4-4D95-8C4E-5A5D08A7CBC5end" refX="15" refY="6" markerUnits="userSpaceOnUse" markerWidth="15" markerHeight="12" orient="auto" fill="#000000" stroke="#000000"> 	  		<path id="_E77896CA-2BE4-4D95-8C4E-5A5D08A7CBC5frame2" d="M 0 1 L 15 6 L 0 11z" fill="#000000" stroke="#000000" stroke-linejoin="round" stroke-width="2"/> 	  	</marker><marker id="_DDBFB683-FC64-4CFA-9179-22947FA3DDEFstart" refX="1" refY="5" markerUnits="userSpaceOnUse" markerWidth="17" markerHeight="11" orient="auto" fill="#000000" stroke="#000000"> 	  		<path id="_DDBFB683-FC64-4CFA-9179-22947FA3DDEFconditional" d="M 0 5 L 8 0 L 16 5 L 8 10 L 0 5" fill="white" stroke="#000000" stroke-width="1" display="none"/> 			<path id="_DDBFB683-FC64-4CFA-9179-22947FA3DDEFdefault" d="M 5 0 L 11 10" fill="white" stroke="#000000" stroke-width="1" display="none"/> 	  	</marker><marker id="_DDBFB683-FC64-4CFA-9179-22947FA3DDEFend" refX="15" refY="6" markerUnits="userSpaceOnUse" markerWidth="15" markerHeight="12" orient="auto" fill="#000000" stroke="#000000"> 	  		<path id="_DDBFB683-FC64-4CFA-9179-22947FA3DDEFframe2" d="M 0 1 L 15 6 L 0 11z" fill="#000000" stroke="#000000" stroke-linejoin="round" stroke-width="2"/> 	  	</marker><marker id="_1702508D-F218-4BE7-BEDB-4ACFF150A65Bstart" refX="1" refY="5" markerUnits="userSpaceOnUse" markerWidth="17" markerHeight="11" orient="auto" fill="#000000" stroke="#000000"> 	  		<path id="_1702508D-F218-4BE7-BEDB-4ACFF150A65Bconditional" d="M 0 5 L 8 0 L 16 5 L 8 10 L 0 5" fill="white" stroke="#000000" stroke-width="1" display="none"/> 			<path id="_1702508D-F218-4BE7-BEDB-4ACFF150A65Bdefault" d="M 5 0 L 11 10" fill="white" stroke="#000000" stroke-width="1" display="none"/> 	  	</marker><marker id="_1702508D-F218-4BE7-BEDB-4ACFF150A65Bend" refX="15" refY="6" markerUnits="userSpaceOnUse" markerWidth="15" markerHeight="12" orient="auto" fill="#000000" stroke="#000000"> 	  		<path id="_1702508D-F218-4BE7-BEDB-4ACFF150A65Bframe2" d="M 0 1 L 15 6 L 0 11z" fill="#000000" stroke="#000000" stroke-linejoin="round" stroke-width="2"/> 	  	</marker></defs><g stroke="none" font-family="Verdana, sans-serif" font-size-adjust="none" font-style="normal" font-variant="normal" font-weight="normal" line-heigth="normal" font-size="12"><g class="stencils" transform="translate(15, 16)"><g class="me"/><g class="children"><g id="_686F53F4-0308-462A-A4E9-72B491687D9B" bpmn2nodeid="processStartEvent"><g class="stencils" transform="translate(120, 165)"><g class="me"><g pointer-events="fill" id="_686F53F4-0308-462A-A4E9-72B491687D9B">        <defs id="_686F53F4-0308-462A-A4E9-72B491687D9B__686F53F4-0308-462A-A4E9-72B491687D9B_5"> 		<radialGradient id="_686F53F4-0308-462A-A4E9-72B491687D9Bbackground" cx="10%" cy="10%" r="100%" fx="10%" fy="10%"> 			<stop offset="0%" stop-color="#ffffff" stop-opacity="1" id="_686F53F4-0308-462A-A4E9-72B491687D9B__686F53F4-0308-462A-A4E9-72B491687D9B_6"/> 			<stop id="_686F53F4-0308-462A-A4E9-72B491687D9Bfill_el" offset="100%" stop-color="#9acd32" stop-opacity="1"/> 		</radialGradient> 	</defs> 	     <circle id="_686F53F4-0308-462A-A4E9-72B491687D9Bbg_frame" cx="15" cy="15" r="15" stroke="#000000" fill="url(#_686F53F4-0308-462A-A4E9-72B491687D9Bbackground) white" stroke-width="1" style="stroke-dasharray: 5.5, 3"/>      <circle id="_686F53F4-0308-462A-A4E9-72B491687D9Bframe" cx="15" cy="15" r="15" stroke="#000000" fill="none" stroke-width="1" display="inherit"/>  	<text font-size="11" id="_686F53F4-0308-462A-A4E9-72B491687D9Btext_name" x="15" y="32" oryx:align="top center" stroke="black" stroke-width="0pt" letter-spacing="-0.01px" fill="#000000" text-anchor="middle" transform="rotate(0 15 32)" visibility="inherit" oryx:fontSize="11"/>   </g></g><g class="children" style="overflow:hidden"/><g class="edge"/></g><g class="controls"><g class="dockers"/><g class="magnets" transform="translate(120, 165)"><g pointer-events="all" display="none" transform="translate(7, 7)"><circle cx="8" cy="8" r="4" stroke="none" fill="red" fill-opacity="0.3"/></g></g></g></g><g id="_1E1214DF-2B91-4035-B6AB-51D7EE864688" bpmn2nodeid="_87E4A380-29D8-4898-AF68-62E4A05E33D6"><g class="stencils" transform="translate(225, 140)"><g class="me"><g pointer-events="fill" oryx:minimumSize="50 40" id="_1E1214DF-2B91-4035-B6AB-51D7EE864688">   	<defs id="_1E1214DF-2B91-4035-B6AB-51D7EE864688__1E1214DF-2B91-4035-B6AB-51D7EE864688_17"> 		<radialGradient id="_1E1214DF-2B91-4035-B6AB-51D7EE864688background" cx="10%" cy="10%" r="100%" fx="10%" fy="10%"> 			<stop offset="0%" stop-color="#ffffff" stop-opacity="1" id="_1E1214DF-2B91-4035-B6AB-51D7EE864688__1E1214DF-2B91-4035-B6AB-51D7EE864688_18"/> 			<stop id="_1E1214DF-2B91-4035-B6AB-51D7EE864688fill_el" offset="100%" stop-color="#fafad2" stop-opacity="1"/> 		</radialGradient> 		<radialGradient id="_1E1214DF-2B91-4035-B6AB-51D7EE864688borderbackground" cx="10%" cy="10%" r="100%" fx="10%" fy="10%"> 			<stop offset="0%" stop-color="#ffffff" stop-opacity="1" id="_1E1214DF-2B91-4035-B6AB-51D7EE864688__1E1214DF-2B91-4035-B6AB-51D7EE864688_19"/> 			<stop id="_1E1214DF-2B91-4035-B6AB-51D7EE864688fill_border" offset="100%" stop-color="#000000" stop-opacity="1" stroke="#000000"/> 		</radialGradient> 	</defs> 	 	<rect id="_1E1214DF-2B91-4035-B6AB-51D7EE864688text_frame" oryx:anchors="bottom top right left" x="1" y="1" width="94" height="79" rx="10" ry="10" stroke="none" stroke-width="0" fill="none"/> 	<rect id="_1E1214DF-2B91-4035-B6AB-51D7EE864688bg_frame" oryx:resize="vertical horizontal" x="0" y="0" width="100" height="80" rx="10" ry="10" stroke="#000000" stroke-width="1" fill="url(#_1E1214DF-2B91-4035-B6AB-51D7EE864688background) #ffffcc"/> 		<text font-size="12" id="_1E1214DF-2B91-4035-B6AB-51D7EE864688text_name" x="50" y="40" oryx:align="middle center" oryx:fittoelem="text_frame" stroke="black" text-anchor="middle" stroke-width="0pt" letter-spacing="-0.01px" fill="#000000" transform="rotate(0 50 40)" visibility="inherit" oryx:fontSize="12"><tspan x="50" y="40" dy="5" id="ext-gen1597">Apto servicio</tspan></text>     <g id="_1E1214DF-2B91-4035-B6AB-51D7EE864688manualTask" transform="scale(0.7,0.7) translate(8,8)" display="none">     	<path oryx:anchors="top left" id="_1E1214DF-2B91-4035-B6AB-51D7EE864688frame" style="opacity:1;fill:none;fill-opacity:1;stroke-width:1" d="M0.5,3.751l4.083-3.25c0,0,11.166,0.083,12.083,0.083s-2.417,2.917-1.5,2.917     s11.667,0,12.584,0c1.166,1.708-0.168,3.167-0.834,3.667s0.875,1.917-1,4.417c-0.75,0.25,0.75,1.875-1.333,3.333     c-1.167,0.583,0.583,1.542-1.25,2.833c-1.167,0-20.833,0.083-20.833,0.083l-2-1.333V3.751z" stroke="#000000"/> 		<path id="_1E1214DF-2B91-4035-B6AB-51D7EE864688frame2" oryx:anchors="top left" style="opacity:1;fill:none;stroke-width:2" d="M 13.5 7 L 27 7" stroke="#000000"/> 		<path id="_1E1214DF-2B91-4035-B6AB-51D7EE864688frame3" oryx:anchors="top left" style="opacity:1;fill:none;stroke-width:2" d="M 13.5 11 L 26 11" stroke="#000000"/> 		<path id="_1E1214DF-2B91-4035-B6AB-51D7EE864688frame4" oryx:anchors="top left" style="opacity:1;fill:none;stroke-width:1.5" d="M 14 14.5 L 25 14.5" stroke="#000000"/> 		<path id="_1E1214DF-2B91-4035-B6AB-51D7EE864688frame5" oryx:anchors="top left" style="opacity:1;fill:none;stroke-width:1.5" d="M 8.2 3.1 L 15 3.1" stroke="#000000"/> 	</g> 	 	<g id="_1E1214DF-2B91-4035-B6AB-51D7EE864688businessRuleTask" transform="scale(0.7,0.7) translate(8,8)" display="inherit"> 		<rect id="_1E1214DF-2B91-4035-B6AB-51D7EE864688frame6" oryx:anchors="top left" x="0" y="0" width="22" height="4" style="opacity:1;fill:#B3B1B3;fill-opacity:1;" stroke="#000000"/> 		<rect id="_1E1214DF-2B91-4035-B6AB-51D7EE864688frame7" oryx:anchors="top left" x="0" y="4" style="opacity:1;fill:none;" width="22" height="12" stroke="#000000"/> 		<path id="_1E1214DF-2B91-4035-B6AB-51D7EE864688frame8" oryx:anchors="top left" style="opacity:1;fill:none;" d="M 0 10 L 22 10" stroke="#000000"/> 		<path id="_1E1214DF-2B91-4035-B6AB-51D7EE864688frame9" oryx:anchors="top left" style="opacity:1; fill:none;" d="M 7 4 L 7 16" stroke="#000000"/> 	</g> 	 	<g id="_1E1214DF-2B91-4035-B6AB-51D7EE864688scriptTask" transform="scale(0.7,0.7) translate(8,8)" display="none"> 		<path oryx:anchors="top left" id="_1E1214DF-2B91-4035-B6AB-51D7EE864688frame10" style="opacity:1;fill:none;" stroke="#000000" d="M6.402,0.5h14.5c0,0-5.833,2.833-5.833,5.583s4.417,6,4.417,9.167    s-4.167,5.083-4.167,5.083H0.235c0,0,5-2.667,5-5s-4.583-6.75-4.583-9.25S6.402,0.5,6.402,0.5z"/> 		<path oryx:anchors="top left" id="_1E1214DF-2B91-4035-B6AB-51D7EE864688frame11" style="opacity:1;fill:none;stroke-width:1.5" d="M 3.5 4.5 L 13.5 4.5" stroke="#000000"/> 		<path oryx:anchors="top left" id="_1E1214DF-2B91-4035-B6AB-51D7EE864688frame12" style="opacity:1;fill:none;stroke-width:1.5" d="M 3.8 8.5 L 13.8 8.5" stroke="#000000"/> 		<path oryx:anchors="top left" id="_1E1214DF-2B91-4035-B6AB-51D7EE864688frame13" style="opacity:1;fill:none;stroke-width:1.5" d="M 6.3 12.5 L 16.3 12.5" stroke="#000000"/> 		<path oryx:anchors="top left" id="_1E1214DF-2B91-4035-B6AB-51D7EE864688frame14" style="opacity:1;fill:none;stroke-width:1.5" d="M 6.5 16.5 L 16.5 16.5" stroke="#000000"/> 	</g> 	 	<g id="_1E1214DF-2B91-4035-B6AB-51D7EE864688userTask" transform="scale(0.7,0.7) translate(8,8)" display="none"> 		<path id="_1E1214DF-2B91-4035-B6AB-51D7EE864688frame15" oryx:anchors="top left" style="opacity:1;fill:#F4F6F7" stroke="#000000" d="M0.585,24.167h24.083v-7.833c0,0-2.333-3.917-7.083-5.167h-9.25    c-4.417,1.333-7.833,5.75-7.833,5.75L0.585,24.167z"/> 		<path id="_1E1214DF-2B91-4035-B6AB-51D7EE864688frame16" oryx:anchors="top left" style="opacity:1;fill:none" d="M 6 20 L 6 24" stroke="#000000"/> 		<path id="_1E1214DF-2B91-4035-B6AB-51D7EE864688frame17" oryx:anchors="top left" style="opacity:1;fill:none" d="M 20 20 L 20 24" stroke="#000000"/> 		<circle id="_1E1214DF-2B91-4035-B6AB-51D7EE864688frame18" oryx:anchors="top left" fill="black" cx="13.002" cy="5.916" r="5.417" stroke="#000000"/> 		<path id="_1E1214DF-2B91-4035-B6AB-51D7EE864688frame19" oryx:anchors="top left" style="opacity:1;fill:#F0EFF0;" stroke="#000000" d="M8.043,7.083c0,0,2.814-2.426,5.376-1.807s4.624-0.693,4.624-0.693    c0.25,1.688,0.042,3.75-1.458,5.584c0,0,1.083,0.75,1.083,1.5s0.125,1.875-1,3s-5.5,1.25-6.75,0S8.668,12.834,8.668,12    s0.583-1.25,1.25-1.917C8.835,9.5,7.419,7.708,8.043,7.083z"/> 	</g> 	 	<g id="_1E1214DF-2B91-4035-B6AB-51D7EE864688serviceTask" transform="scale(0.7,0.7) translate(8,8)" display="none"> 		<polygon oryx:anchors="top left" id="_1E1214DF-2B91-4035-B6AB-51D7EE864688frame20" style="opacity:1;fill:#ffffff" stroke="#000000" points="15.392,5.064 17.954,2.502 20.347,4.895 17.786,7.455     18.729,9.732 22.353,9.732 22.353,13.115 18.731,13.115 17.788,15.392 20.351,17.955 17.958,20.347 15.397,17.786 13.12,18.729     13.12,22.353 9.737,22.353 9.737,18.731 7.46,17.788 4.897,20.35 2.506,17.958 5.066,15.397 4.124,13.12 0.5,13.12 0.5,9.737     4.121,9.737 5.065,7.461 2.503,4.898 4.895,2.506 7.455,5.066 9.732,4.125 9.732,0.5 13.116,0.5 13.116,4.121 "/> 		<circle oryx:anchors="top left" id="_1E1214DF-2B91-4035-B6AB-51D7EE864688frame21" style="opacity:1;fill:none" stroke="#000000" cx="11.427" cy="11.426" r="3.714"/> 		<polygon oryx:anchors="top left" id="_1E1214DF-2B91-4035-B6AB-51D7EE864688frame22" style="opacity:1;fill:#ffffff" stroke="#000000" points="21.392,11.064 23.954,8.502 26.347,10.895 23.786,13.455     24.729,15.732 28.353,15.732 28.353,19.115 24.731,19.115 23.788,21.392 26.351,23.955 23.958,26.347 21.397,23.786 19.12,24.729     19.12,28.353 15.737,28.353 15.737,24.731 13.46,23.788 10.897,26.35 8.506,23.958 11.066,21.397 10.124,19.12 6.5,19.12     6.5,15.737 10.121,15.737 11.065,13.461 8.503,10.898 10.895,8.506 13.455,11.066 15.732,10.125 15.732,6.5 19.116,6.5     19.116,10.121 "/> 		<circle oryx:anchors="top left" id="_1E1214DF-2B91-4035-B6AB-51D7EE864688frame23" style="opacity:1;fill:none;" stroke="#000000" cx="17.427" cy="17.426" r="3.714"/> 	</g> 	 	<g id="_1E1214DF-2B91-4035-B6AB-51D7EE864688sendTask" display="none"> 		<path id="_1E1214DF-2B91-4035-B6AB-51D7EE864688stframe24" oryx:anchors="left top" stroke="#FFFFFF" fill="black" stroke-width="1" d="M8,11 L8,21 L24,21 L24,11 L16,17z"/> 		<path id="_1E1214DF-2B91-4035-B6AB-51D7EE864688stframe25" oryx:anchors="left top" stroke="#FFFFFF" fill="black" stroke-width="1" d="M7,10 L16,17 L25 10z"/> 	</g> 	 	<g id="_1E1214DF-2B91-4035-B6AB-51D7EE864688receiveTask" display="none"> 		<path id="_1E1214DF-2B91-4035-B6AB-51D7EE864688frame26" oryx:anchors="left top" stroke="#000000" fill="none" stroke-width="1" d="M8,11 L8,21 L24,21 L24,11z M8,11 L16,17 L24,11"/> 	</g> 	 	<g id="_1E1214DF-2B91-4035-B6AB-51D7EE864688none" display="inherit"/>  	<g id="_1E1214DF-2B91-4035-B6AB-51D7EE864688sequential" display="none">         <path oryx:anchors="bottom" fill="none" stroke="#000000" stroke-width="2" d="M46,76h10M46,72h10 M46,68h10" id="_1E1214DF-2B91-4035-B6AB-51D7EE864688__1E1214DF-2B91-4035-B6AB-51D7EE864688_20"/>     </g>   </g></g><g class="children" style="overflow:hidden"/><g class="edge"/></g><g class="controls"><g class="dockers"/><g class="magnets" transform="translate(225, 140)"><g pointer-events="all" display="none" transform="translate(-7, 12)"><circle cx="8" cy="8" r="4" stroke="none" fill="red" fill-opacity="0.3"/></g><g pointer-events="all" display="none" transform="translate(-7, 32)"><circle cx="8" cy="8" r="4" stroke="none" fill="red" fill-opacity="0.3"/></g><g pointer-events="all" display="none" transform="translate(-7, 52)"><circle cx="8" cy="8" r="4" stroke="none" fill="red" fill-opacity="0.3"/></g><g pointer-events="all" display="none" transform="translate(17, 71)"><circle cx="8" cy="8" r="4" stroke="none" fill="red" fill-opacity="0.3"/></g><g pointer-events="all" display="none" transform="translate(42, 71)"><circle cx="8" cy="8" r="4" stroke="none" fill="red" fill-opacity="0.3"/></g><g pointer-events="all" display="none" transform="translate(67, 71)"><circle cx="8" cy="8" r="4" stroke="none" fill="red" fill-opacity="0.3"/></g><g pointer-events="all" display="none" transform="translate(91, 12)"><circle cx="8" cy="8" r="4" stroke="none" fill="red" fill-opacity="0.3"/></g><g pointer-events="all" display="none" transform="translate(91, 32)"><circle cx="8" cy="8" r="4" stroke="none" fill="red" fill-opacity="0.3"/></g><g pointer-events="all" display="none" transform="translate(91, 52)"><circle cx="8" cy="8" r="4" stroke="none" fill="red" fill-opacity="0.3"/></g><g pointer-events="all" display="none" transform="translate(17, -7)"><circle cx="8" cy="8" r="4" stroke="none" fill="red" fill-opacity="0.3"/></g><g pointer-events="all" display="none" transform="translate(42, -7)"><circle cx="8" cy="8" r="4" stroke="none" fill="red" fill-opacity="0.3"/></g><g pointer-events="all" display="none" transform="translate(67, -7)"><circle cx="8" cy="8" r="4" stroke="none" fill="red" fill-opacity="0.3"/></g><g pointer-events="all" display="none" transform="translate(42, 32)"><circle cx="8" cy="8" r="4" stroke="none" fill="red" fill-opacity="0.3"/></g></g></g></g><g id="_B4657F3D-E147-44A1-ABF7-EDED556E5CD5" bpmn2nodeid="_0D7B863D-FAC7-45A1-B9A9-9E495AD72324"><g class="stencils" transform="translate(370, 160)"><g class="me"><g id="_B4657F3D-E147-44A1-ABF7-EDED556E5CD5">        <defs id="_B4657F3D-E147-44A1-ABF7-EDED556E5CD5__B4657F3D-E147-44A1-ABF7-EDED556E5CD5_4"> 		<radialGradient id="_B4657F3D-E147-44A1-ABF7-EDED556E5CD5background" cx="10%" cy="10%" r="100%" fx="10%" fy="10%"> 			<stop offset="0%" stop-color="#ffffff" stop-opacity="1" id="_B4657F3D-E147-44A1-ABF7-EDED556E5CD5__B4657F3D-E147-44A1-ABF7-EDED556E5CD5_5"/> 			<stop id="_B4657F3D-E147-44A1-ABF7-EDED556E5CD5fill_el" offset="100%" stop-color="#f0e68c" stop-opacity="1"/> 		</radialGradient> 		<radialGradient id="_B4657F3D-E147-44A1-ABF7-EDED556E5CD5borderbackground" cx="10%" cy="10%" r="100%" fx="10%" fy="10%"> 			<stop offset="0%" stop-color="#ffffff" stop-opacity="1" id="_B4657F3D-E147-44A1-ABF7-EDED556E5CD5__B4657F3D-E147-44A1-ABF7-EDED556E5CD5_6"/> 			<stop id="_B4657F3D-E147-44A1-ABF7-EDED556E5CD5fill_border" offset="100%" stop-color="#a67f00" stop-opacity="1" stroke="#a67f00"/> 		</radialGradient> 	</defs> 	     <path d=" M0 20.5  L20.5 0  L40 20.5  L20.5 40  z" id="_B4657F3D-E147-44A1-ABF7-EDED556E5CD5bg_frame" fill="url(#_B4657F3D-E147-44A1-ABF7-EDED556E5CD5background) white" style="stroke-width:1" stroke="#a67f00"/>     <g id="_B4657F3D-E147-44A1-ABF7-EDED556E5CD5frame" stroke="#a67f00">       <path id="_B4657F3D-E147-44A1-ABF7-EDED556E5CD5frame2" d=" M13.25 12.05  L17.25 12.05  L27.65 28.95  L23.75 28.95  z" style="stroke-width:1" stroke="#a67f00" fill="url(#_B4657F3D-E147-44A1-ABF7-EDED556E5CD5borderbackground)"/>       <path id="_B4657F3D-E147-44A1-ABF7-EDED556E5CD5frame3" d=" M13.25 28.95  L23.75 12.05  L27.65 12.05  L17.25 28.95  z" style="stroke-width:1" stroke="#a67f00" fill="url(#_B4657F3D-E147-44A1-ABF7-EDED556E5CD5borderbackground)"/>     </g> 	 	<text id="_B4657F3D-E147-44A1-ABF7-EDED556E5CD5text_name" x="30.5" y="30.5" oryx:align="left top" stroke-width="0pt" letter-spacing="-0.01px" fill="#000000" text-anchor="start" transform="rotate(0 30.5 30.5)" visibility="inherit" oryx:fontSize="12"/> 	   </g></g><g class="children" style="overflow:hidden"/><g class="edge"/></g><g class="controls"><g class="dockers"/><g class="magnets" transform="translate(370, 160)"><g pointer-events="all" display="none" transform="translate(12.5, 12.5)"><circle cx="8" cy="8" r="4" stroke="none" fill="red" fill-opacity="0.3"/></g></g></g></g><g id="_4DB467E3-F848-499E-A248-4EDE32FAA680" bpmn2nodeid="_EA40E826-31A9-40E5-AD26-8F556EB692DC"><g class="stencils" transform="translate(455, 166)"><g class="me"><g pointer-events="fill" id="_4DB467E3-F848-499E-A248-4EDE32FAA680">       <defs id="_4DB467E3-F848-499E-A248-4EDE32FAA680__4DB467E3-F848-499E-A248-4EDE32FAA680_5"> 		<radialGradient id="_4DB467E3-F848-499E-A248-4EDE32FAA680background" cx="10%" cy="10%" r="100%" fx="10%" fy="10%"> 			<stop offset="0%" stop-color="#ffffff" stop-opacity="1" id="_4DB467E3-F848-499E-A248-4EDE32FAA680__4DB467E3-F848-499E-A248-4EDE32FAA680_6"/> 			<stop id="_4DB467E3-F848-499E-A248-4EDE32FAA680fill_el" offset="100%" stop-color="#ff6347" stop-opacity="1"/> 		</radialGradient> 		<radialGradient id="_4DB467E3-F848-499E-A248-4EDE32FAA680borderbackground" cx="10%" cy="10%" r="100%" fx="10%" fy="10%"> 			<stop offset="0%" stop-color="#ffffff" stop-opacity="1" id="_4DB467E3-F848-499E-A248-4EDE32FAA680__4DB467E3-F848-499E-A248-4EDE32FAA680_7"/> 			<stop id="_4DB467E3-F848-499E-A248-4EDE32FAA680fill_border" offset="100%" stop-color="#000000" stop-opacity="1" stroke="#000000"/> 		</radialGradient> 	</defs> 	     <circle id="_4DB467E3-F848-499E-A248-4EDE32FAA680bg_frame" cx="14" cy="14" r="14" stroke="#000000" fill="url(#_4DB467E3-F848-499E-A248-4EDE32FAA680background) white" stroke-width="3"/>          <circle id="_4DB467E3-F848-499E-A248-4EDE32FAA680frame" cx="14" cy="14" r="9" stroke="#000000" fill="url(#_4DB467E3-F848-499E-A248-4EDE32FAA680borderbackground)" stroke-width="1"/> 	<text font-size="11" id="_4DB467E3-F848-499E-A248-4EDE32FAA680text_name" x="14" y="30" oryx:align="top center" stroke="black" stroke-width="0pt" letter-spacing="-0.01px" fill="#000000" text-anchor="middle" transform="rotate(0 14 30)" visibility="inherit" oryx:fontSize="11"><tspan x="14" y="30" dy="11" id="ext-gen2176">Fin OK</tspan></text>   </g></g><g class="children" style="overflow:hidden"/><g class="edge"/></g><g class="controls"><g class="dockers"/><g class="magnets" transform="translate(455, 166)"><g pointer-events="all" display="none" transform="translate(6, 6)"><circle cx="8" cy="8" r="4" stroke="none" fill="red" fill-opacity="0.3"/></g></g></g></g><g id="_E3E7F9EE-1F94-4850-A345-D8894CFE1076" bpmn2nodeid="_AF877756-A963-4082-8D94-370CFD0E4D3E"><g class="stencils" transform="translate(376, 270)"><g class="me"><g pointer-events="fill" id="_E3E7F9EE-1F94-4850-A345-D8894CFE1076">       <defs id="_E3E7F9EE-1F94-4850-A345-D8894CFE1076__E3E7F9EE-1F94-4850-A345-D8894CFE1076_5"> 		<radialGradient id="_E3E7F9EE-1F94-4850-A345-D8894CFE1076background" cx="10%" cy="10%" r="100%" fx="10%" fy="10%"> 			<stop offset="0%" stop-color="#ffffff" stop-opacity="1" id="_E3E7F9EE-1F94-4850-A345-D8894CFE1076__E3E7F9EE-1F94-4850-A345-D8894CFE1076_6"/> 			<stop id="_E3E7F9EE-1F94-4850-A345-D8894CFE1076fill_el" offset="100%" stop-color="#ff6347" stop-opacity="1"/> 		</radialGradient> 		<radialGradient id="_E3E7F9EE-1F94-4850-A345-D8894CFE1076borderbackground" cx="10%" cy="10%" r="100%" fx="10%" fy="10%"> 			<stop offset="0%" stop-color="#ffffff" stop-opacity="1" id="_E3E7F9EE-1F94-4850-A345-D8894CFE1076__E3E7F9EE-1F94-4850-A345-D8894CFE1076_7"/> 			<stop id="_E3E7F9EE-1F94-4850-A345-D8894CFE1076fill_border" offset="100%" stop-color="#000000" stop-opacity="1" stroke="#000000"/> 		</radialGradient> 	</defs> 	     <circle id="_E3E7F9EE-1F94-4850-A345-D8894CFE1076bg_frame" cx="14" cy="14" r="14" stroke="#000000" fill="url(#_E3E7F9EE-1F94-4850-A345-D8894CFE1076background) white" stroke-width="3"/>          <circle id="_E3E7F9EE-1F94-4850-A345-D8894CFE1076frame" cx="14" cy="14" r="9" stroke="#000000" fill="url(#_E3E7F9EE-1F94-4850-A345-D8894CFE1076borderbackground)" stroke-width="1"/> 	<text font-size="11" id="_E3E7F9EE-1F94-4850-A345-D8894CFE1076text_name" x="14" y="30" oryx:align="top center" stroke="black" stroke-width="0pt" letter-spacing="-0.01px" fill="#000000" text-anchor="middle" transform="rotate(0 14 30)" visibility="inherit" oryx:fontSize="11"><tspan x="14" y="30" dy="11">Fin Error</tspan></text>   </g></g><g class="children" style="overflow:hidden"/><g class="edge"/></g><g class="controls"><g class="dockers"/><g class="magnets" transform="translate(376, 270)"><g pointer-events="all" display="none" transform="translate(6, 6)"><circle cx="8" cy="8" r="4" stroke="none" fill="red" fill-opacity="0.3"/></g></g></g></g></g><g class="edge"><g id="_5BFF3852-4861-45EE-B903-F9D9F0D80286" bpmn2nodeid="_884017D5-5FD0-486A-B161-A9F8B32EF03D"><g class="stencils"><g class="me"><g pointer-events="painted" bpmn2nodeid="_E089F608-94F1-4B74-989D-786AC1BC695F"><path id="_5BFF3852-4861-45EE-B903-F9D9F0D80286_1" d="M150.21875 180L224.78125 180 " stroke="#000000" fill="none" stroke-width="2" stroke-linecap="round" stroke-linejoin="round" marker-start="url(#_5BFF3852-4861-45EE-B903-F9D9F0D80286start)" marker-end="url(#_5BFF3852-4861-45EE-B903-F9D9F0D80286end)"/></g><text id="_5BFF3852-4861-45EE-B903-F9D9F0D80286text_name" font-size="12" x="164.21875" y="166" oryx:edgePosition="startTop" stroke-width="0pt" letter-spacing="-0.01px" fill="#000000" text-anchor="start" transform="rotate(360 150.21875 180)" visibility="inherit" oryx:fontSize="12"/></g><g class="children" style="overflow:hidden"/><g class="edge"/></g><g class="controls"><g class="dockers"/><g class="magnets"/></g></g><g id="_E77896CA-2BE4-4D95-8C4E-5A5D08A7CBC5" bpmn2nodeid="_2E03C21F-E525-4099-8BE8-F7A8554A70BF"><g class="stencils"><g class="me"><g pointer-events="painted" bpmn2nodeid="_CED25ABD-23ED-43FE-87C6-CEBBE93D044E"><path id="_E77896CA-2BE4-4D95-8C4E-5A5D08A7CBC5_1" d="M325.4140625 180L370.1328125 180 " stroke="#000000" fill="none" stroke-width="2" stroke-linecap="round" stroke-linejoin="round" marker-start="url(#_E77896CA-2BE4-4D95-8C4E-5A5D08A7CBC5start)" marker-end="url(#_E77896CA-2BE4-4D95-8C4E-5A5D08A7CBC5end)"/></g><text id="_E77896CA-2BE4-4D95-8C4E-5A5D08A7CBC5text_name" font-size="12" x="339.4140625" y="166" oryx:edgePosition="startTop" stroke-width="0pt" letter-spacing="-0.01px" fill="#000000" text-anchor="start" transform="rotate(360 325.4140625 180)" visibility="inherit" oryx:fontSize="12"/></g><g class="children" style="overflow:hidden"/><g class="edge"/></g><g class="controls"><g class="dockers"/><g class="magnets"/></g></g><g id="_DDBFB683-FC64-4CFA-9179-22947FA3DDEF" bpmn2nodeid="_F47A5094-F3F5-44BA-8C8C-E333F72D689D"><g class="stencils"><g class="me"><g pointer-events="painted" bpmn2nodeid="_3740B2C3-7E0C-4871-BBA1-B8B1363D3883"><path id="_DDBFB683-FC64-4CFA-9179-22947FA3DDEF_1" d="M410.1328125 180L454.421875 180 " stroke="#000000" fill="none" stroke-width="2" stroke-linecap="round" stroke-linejoin="round" marker-start="url(#_DDBFB683-FC64-4CFA-9179-22947FA3DDEFstart)" marker-end="url(#_DDBFB683-FC64-4CFA-9179-22947FA3DDEFend)"/></g><text id="_DDBFB683-FC64-4CFA-9179-22947FA3DDEFtext_name" font-size="12" x="424.1328125" y="166" oryx:edgePosition="startTop" stroke-width="0pt" letter-spacing="-0.01px" fill="#000000" text-anchor="start" transform="rotate(360 410.1328125 180)" visibility="inherit" oryx:fontSize="12"><tspan x="424.1328125" y="166" dy="0" id="ext-gen2177">apto</tspan></text></g><g class="children" style="overflow:hidden"/><g class="edge"/></g><g class="controls"><g class="dockers"/><g class="magnets"/></g></g><g id="_1702508D-F218-4BE7-BEDB-4ACFF150A65B" bpmn2nodeid="_3DFC6182-D6DE-420B-BD62-C233A3FE05F1"><g class="stencils"><g class="me"><g pointer-events="painted" bpmn2nodeid="_7A70D5D8-7509-4667-B760-213CC0061EE4"><path id="_1702508D-F218-4BE7-BEDB-4ACFF150A65B_1" d="M390 200.5L390 270 " stroke="#000000" fill="none" stroke-width="2" stroke-linecap="round" stroke-linejoin="round" marker-start="url(#_1702508D-F218-4BE7-BEDB-4ACFF150A65Bstart)" marker-end="url(#_1702508D-F218-4BE7-BEDB-4ACFF150A65Bend)"/></g><text id="_1702508D-F218-4BE7-BEDB-4ACFF150A65Btext_name" font-size="12" x="376" y="186.5" oryx:edgePosition="startTop" stroke-width="0pt" letter-spacing="-0.01px" fill="#000000" text-anchor="end" transform="rotate(-90 390 200.5)" visibility="inherit" oryx:fontSize="12"><tspan x="376" y="186.5" dy="0" id="ext-gen2178">no apto</tspan></text></g><g class="children" style="overflow:hidden"/><g class="edge"/></g><g class="controls"><g class="dockers"/><g class="magnets"/></g></g></g><text id="_FEA5AF80-2481-49D5-8822-8E474F4383FE" style="stroke-width:1;fill:rgb(177,194,214);font-family:arial;font-weight:bold" font-size="12" onclick="ORYX.Plugins.CanvasTitle.openTextualAnalysis()" onmouseover="ORYX.Plugins.CanvasTitle.addToolTip('_FEA5AF80-2481-49D5-8822-8E474F4383FE')" transform="translate(10, 20)">Validaciones v.1.0 (droolssmg.Validaciones)</text></g></g></svg>